<?xml version="1.0" standalone="no"?>
<!DOCTYPE svg PUBLIC "-//W3C//DTD SVG 1.1//EN" "http://www.w3.org/Graphics/SVG/1.1/DTD/svg11.dtd" >
<!--
Created with mf2outline.
-->
<svg xmlns="http://www.w3.org/2000/svg" xmlns:xlink="http://www.w3.org/1999/xlink" version="1.1">
<metadata>
Created by FontForge 20201107 at Fri Jan 26 04:34:51 2024
 By 
Copyright (c) 2024, Metaflop (http://www.metaflop.com), Simon Egli, Marco Mueller, Alexis Reigel, with Reserved Font Name Bespoke. Dual licensed under the GPL v3 (http://www.gnu.org/copyleft/gpl.html) and the OFL v1.1 (http://scripts.sil.org/OFL_web).
</metadata>
<defs>
<font id="Bespoke-YDRFyMQCWS" horiz-adv-x="518" >
  <font-face 
    font-family="Bespoke"
    font-weight="500"
    font-stretch="normal"
    units-per-em="1000"
    panose-1="2 0 5 3 0 0 0 0 0 0"
    ascent="800"
    descent="-200"
    x-height="508"
    cap-height="940"
    bbox="-117 -270 1008 1214"
    underline-thickness="50"
    underline-position="-100"
    unicode-range="U+0020-FB04"
  />
    <missing-glyph />
    <glyph glyph-name="fi" unicode="fi" horiz-adv-x="512" 
d="M30 460v48h98v207c0 68 0 138 36 196c25 40 72 59 120 59h7c48 0 95 -19 120 -59c21 -35 31 -74 34 -115l-53 -5c-3 29 -9 57 -22 83c-15 30 -46 48 -79 48h-7c-33 0 -64 -18 -79 -48c-24 -48 -24 -104 -24 -159v-207h266v-508h-53v460h-213v-460h-53v460h-98z" />
    <glyph glyph-name="guillemotright" unicode="&#x3e;&#x3e;" horiz-adv-x="512" 
d="M256 254l-150 -254h-57l150 254l-150 254h57zM463 254l-150 -254h-57l150 254l-150 254h57z" />
    <glyph glyph-name="guillemotleft" unicode="&#x3c;&#x3c;" horiz-adv-x="512" 
d="M106 254l150 -254h-57l-150 254l150 254h57zM313 254l150 -254h-57l-150 254l150 254h57z" />
    <glyph glyph-name="quotedblright" unicode="&#x2019;&#x2019;" horiz-adv-x="501" 
d="M92 634l83 306h54l-97 -306h-40zM363 940h54l-97 -306h-40z" />
    <glyph glyph-name="exclamdown" unicode="&#x21;&#x2018;" horiz-adv-x="293" 
d="M120 -250v557h53v-557h-53zM146 532c12 0 24 -2 32 -10s10 -20 10 -32s-2 -24 -10 -32s-20 -10 -32 -10s-24 2 -32 10s-9 20 -9 32s1 24 9 32s20 10 32 10z" />
    <glyph glyph-name="fl" unicode="fl" horiz-adv-x="540" 
d="M236 922c-49 0 -55 -58 -55 -104v-310h99v-48h-99v-460h-52v460h-99v48h99v310c0 41 0 84 24 117c18 26 51 35 83 35h3c30 0 60 -8 79 -30l-42 -35c-9 11 -22 17 -37 17h-3zM421 0v950h53v-950h-53z" />
    <glyph glyph-name="questiondown" unicode="&#x3f;&#x2018;" horiz-adv-x="469" 
d="M241 307h52v-143h-30c-41 0 -83 -11 -107 -44c-30 -42 -32 -97 -32 -149s2 -107 32 -149c24 -33 66 -44 107 -44h8c41 0 83 11 107 44c12 17 20 36 25 56l52 -11c-6 -30 -17 -58 -36 -82c-34 -43 -92 -55 -148 -55h-8c-56 0 -114 12 -148 55c-41 51 -44 120 -44 186
s3 135 44 186c30 38 78 51 126 54v96zM267 532c12 0 24 -2 32 -10s10 -20 10 -32s-2 -24 -10 -32s-20 -10 -32 -10s-24 2 -32 10s-10 20 -10 32s2 24 10 32s20 10 32 10z" />
    <glyph glyph-name="endash" unicode="&#x2d;&#x2d;" horiz-adv-x="512" 
d="M33 230v48h447v-48h-447z" />
    <glyph glyph-name="emdash" unicode="&#x2013;&#x2d;" horiz-adv-x="894" 
d="M33 230v48h828v-48h-828z" />
    <glyph glyph-name="quotedblleft" unicode="&#x2018;&#x2018;" horiz-adv-x="501" 
d="M85 634l97 306h40l-83 -306h-54zM370 940h40l-83 -306h-54z" />
    <glyph glyph-name="ring" unicode="&#x2da;" horiz-adv-x="229" 
d="M116 924h-3c-16 0 -33 -5 -42 -18c-12 -17 -13 -39 -13 -60s1 -43 13 -60c9 -13 26 -18 42 -18h3c16 0 33 5 42 18c12 17 12 39 12 60s0 43 -12 60c-9 13 -26 18 -42 18zM116 956c26 0 53 -5 69 -25c19 -23 21 -55 21 -85s-2 -62 -21 -85c-16 -20 -43 -25 -69 -25h-3
c-26 0 -53 5 -69 25c-19 23 -21 55 -21 85s2 62 21 85c16 20 43 25 69 25h3z" />
    <glyph glyph-name="rcaron" unicode="&#x159;" horiz-adv-x="344" 
d="M65 0v508h53v-196c0 57 0 117 30 166c21 34 61 50 101 50h8c53 0 108 -10 142 -50c16 -19 27 -42 33 -66l-52 -13c-4 15 -12 29 -22 42c-23 30 -63 39 -101 39h-8c-38 0 -78 -9 -101 -39c-28 -36 -30 -83 -30 -129v-312h-53zM304 774h46l-108 -188h-62l-107 188h46
l92 -141z" />
    <glyph glyph-name="Eng" unicode="&#x14a;" horiz-adv-x="681" 
d="M76 0v940h57l419 -835v835h53v-1051c0 -44 -5 -90 -36 -122c-31 -31 -77 -37 -121 -37h-6c-44 0 -89 6 -120 37c-19 19 -29 43 -33 69l53 9c3 -16 9 -29 20 -41c20 -21 51 -26 80 -26h6c29 0 60 5 80 26c21 22 24 54 24 85v111h-4l-419 835v-835h-53z" />
    <glyph glyph-name="Q" unicode="Q" horiz-adv-x="763" 
d="M390 912h-17c-83 0 -166 -32 -209 -102c-62 -101 -62 -222 -62 -340s0 -239 62 -340c43 -70 126 -102 209 -102h17c73 0 145 24 191 78l-110 155h61l79 -110c50 96 50 210 50 319c0 118 0 239 -62 340c-43 70 -126 102 -209 102zM390 960c98 0 196 -32 249 -113
c72 -110 75 -246 75 -377c0 -127 -2 -260 -68 -368l72 -102h-61l-43 61c-56 -57 -141 -81 -224 -81h-17c-98 0 -196 32 -249 113c-72 110 -75 246 -75 377s3 267 75 377c53 81 151 113 249 113h17z" />
    <glyph glyph-name="Abreve" unicode="&#x102;" horiz-adv-x="605" 
d="M11 0l263 940h57l263 -940h-55l-38 136h-402l-38 -136h-50zM455 1155c0 -34 -7 -71 -34 -92c-32 -25 -74 -27 -115 -27h-7c-41 0 -83 2 -115 27c-27 21 -34 58 -34 92h42c0 -22 7 -46 25 -59c24 -17 53 -17 82 -17h7c29 0 58 0 82 17c18 13 25 37 25 59h42zM488 184
l-188 670l-187 -670h375z" />
    <glyph glyph-name="i" unicode="i" horiz-adv-x="207" 
d="M77 0v508h53v-508h-53zM104 727c12 0 25 -2 33 -10s10 -21 10 -33s-2 -25 -10 -33s-21 -10 -33 -10s-26 2 -34 10s-9 21 -9 33s1 25 9 33s22 10 34 10z" />
    <glyph glyph-name="quoteright" unicode="&#x2019;" horiz-adv-x="278" 
d="M155 940h54l-98 -306h-40z" />
    <glyph glyph-name="Gbreve" unicode="&#x11e;" horiz-adv-x="779" 
d="M714 0h-53v211h-10c-8 -49 -24 -97 -52 -139c-45 -67 -128 -92 -209 -92h-17c-98 0 -196 32 -249 113c-72 110 -75 246 -75 377s3 267 75 377c53 81 151 113 249 113h17c98 0 196 -32 249 -113c42 -64 61 -136 69 -212l-53 -6c-7 64 -22 126 -56 181
c-43 70 -126 102 -209 102h-17c-83 0 -166 -32 -209 -102c-62 -101 -62 -222 -62 -340s0 -239 62 -340c43 -70 126 -102 209 -102h17c79 0 161 19 209 81c23 31 38 65 47 102h-264v48h273c5 40 6 82 6 123c0 -41 0 -82 -4 -123h57v-259zM534 1155c0 -34 -7 -71 -34 -92
c-32 -25 -74 -27 -115 -27h-7c-41 0 -83 2 -115 27c-27 21 -34 58 -34 92h42c0 -22 7 -46 25 -59c24 -17 53 -17 82 -17h7c29 0 58 0 82 17c18 13 25 37 25 59h42z" />
    <glyph glyph-name="Ohungarumlaut" unicode="&#x150;" horiz-adv-x="763" 
d="M261 1010l91 188h59l-106 -188h-44zM515 1198h60l-106 -188h-44zM390 912h-17c-83 0 -166 -32 -209 -102c-62 -101 -62 -222 -62 -340s0 -239 62 -340c43 -70 126 -102 209 -102h17c83 0 166 32 209 102c62 101 62 222 62 340s0 239 -62 340c-43 70 -126 102 -209 102z
M390 960c98 0 196 -32 249 -113c72 -110 75 -246 75 -377s-3 -267 -75 -377c-53 -81 -151 -113 -249 -113h-17c-98 0 -196 32 -249 113c-72 110 -75 246 -75 377s3 267 75 377c53 81 151 113 249 113h17z" />
    <glyph glyph-name="racute" unicode="&#x155;" horiz-adv-x="344" 
d="M65 0v508h53v-196c0 57 0 117 30 166c21 34 61 50 101 50h8c53 0 108 -10 142 -50c16 -19 27 -42 33 -66l-52 -13c-4 15 -12 29 -22 42c-23 30 -63 39 -101 39h-8c-38 0 -78 -9 -101 -39c-28 -36 -30 -83 -30 -129v-312h-53zM271 774h61l-114 -188h-45z" />
    <glyph glyph-name="udieresis" unicode="&#xfc;" 
d="M452 508v-508h-52v172c0 -52 -2 -106 -32 -148c-24 -33 -67 -44 -108 -44h-8c-54 0 -110 6 -148 44s-44 94 -44 148v336h53v-336c0 -40 4 -82 32 -111c27 -28 68 -33 107 -33h8c39 0 81 5 108 33c28 29 32 71 32 111v336h52zM158 727c12 0 25 -2 33 -10s10 -21 10 -33
s-2 -25 -10 -33s-21 -10 -33 -10s-25 2 -33 10s-10 21 -10 33s2 25 10 33s21 10 33 10zM354 727c12 0 25 -2 33 -10s10 -21 10 -33s-2 -25 -10 -33s-21 -10 -33 -10s-25 2 -33 10s-10 21 -10 33s2 25 10 33s21 10 33 10z" />
    <glyph glyph-name="slash" unicode="/" horiz-adv-x="409" 
d="M22 -47l310 1034h55l-310 -1034h-55z" />
    <glyph glyph-name="asciitilde" unicode="~" horiz-adv-x="534" 
d="M96 178h-52c0 38 2 78 28 107c24 26 61 32 97 32c73 0 123 -79 196 -79c21 0 43 5 56 21c15 20 17 46 17 71h52c0 -38 -2 -79 -28 -108c-24 -26 -61 -32 -97 -32c-73 0 -123 79 -196 79c-21 0 -43 -5 -56 -21c-15 -20 -17 -45 -17 -70z" />
    <glyph glyph-name="section" unicode="&#xa7;" 
d="M65 -123l53 8c4 -24 12 -46 27 -65c24 -32 66 -42 107 -42h8c41 0 84 10 108 42c30 39 32 91 32 140s-2 102 -32 141c-24 32 -67 42 -108 42c53 0 109 -5 148 -42c37 -35 44 -90 44 -141c0 -63 -4 -129 -44 -177c-35 -42 -93 -53 -148 -53h-8c-55 0 -113 11 -148 53
c-22 27 -34 60 -39 94zM450 794l-53 -5c-3 30 -11 57 -29 81c-24 32 -67 42 -108 42h-8c-41 0 -83 -10 -107 -42c-30 -39 -32 -91 -32 -140s2 -102 32 -141c24 -32 66 -42 107 -42c-53 0 -109 5 -148 42c-37 35 -44 90 -44 141c0 63 4 129 44 177c35 42 93 53 148 53h8
c55 0 113 -11 148 -53c27 -32 38 -72 42 -113zM260 499h-8c-40 0 -81 -6 -107 -35c-28 -32 -32 -76 -32 -119s4 -87 32 -119c26 -29 67 -35 107 -35h8c40 0 82 6 108 35c28 32 32 76 32 119s-4 87 -32 119c-26 29 -68 35 -108 35zM260 547c54 0 111 -7 148 -46
c39 -41 44 -100 44 -156s-5 -115 -44 -156c-37 -39 -94 -46 -148 -46h-8c-54 0 -111 7 -148 46c-39 41 -44 100 -44 156s5 115 44 156c37 39 94 46 148 46h8z" />
    <glyph glyph-name="guilsinglright" unicode="&#x203a;" horiz-adv-x="300" 
d="M251 254l-145 -254h-57l145 254l-145 254h57z" />
    <glyph glyph-name="Edieresis" unicode="&#xcb;" horiz-adv-x="507" 
d="M76 0v940h393v-48h-340v-633h313v-48h-313v-163h340v-48h-393zM174 1151c12 0 26 -1 34 -9s9 -22 9 -34s-1 -25 -9 -33s-22 -9 -34 -9s-25 1 -33 9s-10 21 -10 33s2 26 10 34s21 9 33 9zM371 1151c12 0 25 -1 33 -9s10 -22 10 -34s-2 -25 -10 -33s-21 -9 -33 -9
s-26 1 -34 9s-9 21 -9 33s1 26 9 34s22 9 34 9z" />
    <glyph glyph-name="eng" unicode="&#x14b;" 
d="M65 0v508h53v-172c0 53 4 107 39 147c31 36 81 45 129 45h9c47 0 95 -10 125 -45c34 -40 38 -94 38 -147v-447c0 -43 -2 -88 -30 -122c-24 -29 -63 -37 -101 -37h-5c-38 0 -76 8 -100 37c-16 20 -25 43 -28 69l53 7c2 -14 7 -27 15 -39c13 -19 37 -26 60 -26h5
c23 0 47 7 60 26c17 24 18 55 18 85v447c0 39 -1 79 -25 110c-19 25 -53 34 -85 34h-9c-46 0 -94 -4 -129 -34c-31 -27 -39 -69 -39 -110v-336h-53z" />
    <glyph glyph-name="r" unicode="r" horiz-adv-x="344" 
d="M65 0v508h53v-196c0 57 0 117 30 166c21 34 61 50 101 50h8c53 0 108 -10 142 -50c16 -19 27 -42 33 -66l-52 -13c-4 15 -12 29 -22 42c-23 30 -63 39 -101 39h-8c-38 0 -78 -9 -101 -39c-28 -36 -30 -83 -30 -129v-312h-53z" />
    <glyph glyph-name="u" unicode="u" 
d="M452 508v-508h-52v172c0 -52 -2 -106 -32 -148c-24 -33 -67 -44 -108 -44h-8c-54 0 -110 6 -148 44s-44 94 -44 148v336h53v-336c0 -40 4 -82 32 -111c27 -28 68 -33 107 -33h8c39 0 81 5 108 33c28 29 32 71 32 111v336h52z" />
    <glyph glyph-name="Odieresis" unicode="&#xd6;" horiz-adv-x="763" 
d="M283 1151c12 0 26 -1 34 -9s9 -22 9 -34s-1 -25 -9 -33s-22 -9 -34 -9s-25 1 -33 9s-10 21 -10 33s2 26 10 34s21 9 33 9zM480 1151c12 0 25 -1 33 -9s10 -22 10 -34s-2 -25 -10 -33s-21 -9 -33 -9s-26 1 -34 9s-9 21 -9 33s1 26 9 34s22 9 34 9zM390 912h-17
c-83 0 -166 -32 -209 -102c-62 -101 -62 -222 -62 -340s0 -239 62 -340c43 -70 126 -102 209 -102h17c83 0 166 32 209 102c62 101 62 222 62 340s0 239 -62 340c-43 70 -126 102 -209 102zM390 960c98 0 196 -32 249 -113c72 -110 75 -246 75 -377s-3 -267 -75 -377
c-53 -81 -151 -113 -249 -113h-17c-98 0 -196 32 -249 113c-72 110 -75 246 -75 377s3 267 75 377c53 81 151 113 249 113h17z" />
    <glyph glyph-name="Zdotaccent" unicode="&#x17b;" horiz-adv-x="556" 
d="M27 892v48h502v-57l-448 -835h448v-48h-502v57l448 835h-448zM278 1151c12 0 25 -1 33 -9s10 -22 10 -34s-2 -25 -10 -33s-21 -9 -33 -9s-25 1 -33 9s-10 21 -10 33s2 26 10 34s21 9 33 9z" />
    <glyph glyph-name="Igrave" unicode="&#xcc;" horiz-adv-x="227" 
d="M87 0v940h53v-940h-53zM-7 1198h61l98 -188h-45z" />
    <glyph glyph-name="P" unicode="P" horiz-adv-x="556" 
d="M76 0v940h211c72 0 145 -28 182 -89c54 -88 54 -193 54 -296s0 -209 -54 -297c-37 -61 -110 -88 -182 -88h-158v-170h-53zM129 892v-674h158c58 0 114 26 141 77c42 78 42 171 42 260s0 181 -42 259c-27 51 -83 78 -141 78h-158z" />
    <glyph glyph-name="tcaron" unicode="&#x165;" horiz-adv-x="294" 
d="M8 460v48h113v442h53v-442h112v-48h-112v-460h-53v460h-113zM389 950h54l-97 -306h-40z" />
    <glyph glyph-name="Scedilla" unicode="&#x15e;" horiz-adv-x="567" 
d="M46 176l53 5c4 -38 15 -74 39 -103c33 -40 85 -50 137 -50h11c52 0 108 7 141 47c38 47 38 110 38 170c0 78 -35 153 -103 189l-168 29c-87 46 -134 141 -134 240c0 71 1 147 47 202c40 48 106 55 169 55h10c62 0 126 -12 165 -59c29 -35 42 -79 47 -125l-52 -14
c-3 37 -12 73 -35 102c-29 37 -78 48 -125 48h-10c-48 0 -99 -8 -128 -45c-35 -45 -35 -106 -35 -164c0 -79 36 -155 106 -192l168 -29c86 -45 131 -139 131 -237c0 -74 -1 -152 -50 -208c-42 -49 -110 -57 -175 -57l-8 -36c35 0 72 -2 99 -24c23 -19 30 -50 30 -80
s-7 -61 -30 -80c-28 -22 -65 -24 -101 -24h-5c-36 0 -73 2 -101 24c-22 17 -29 44 -30 72l43 2c1 -17 6 -35 20 -45c19 -14 44 -15 68 -15h5c24 0 49 1 68 15c15 11 21 32 21 51s-6 40 -21 51c-19 14 -44 15 -68 15h-44l15 74c-59 3 -118 17 -157 61c-33 38 -46 85 -51 135z
" />
    <glyph glyph-name="b" unicode="b" horiz-adv-x="561" 
d="M71 0v950h53v-696c0 73 0 149 38 211c26 43 76 63 127 63h10c63 0 130 -14 169 -63c46 -58 50 -136 50 -211s-4 -153 -50 -211c-39 -49 -106 -63 -169 -63h-10c-51 0 -101 20 -127 63c-38 62 -38 138 -38 211v-254h-53zM299 480h-10c-49 0 -98 -13 -127 -52
c-36 -49 -38 -113 -38 -174s2 -125 38 -174c29 -39 78 -52 127 -52h10c49 0 99 13 128 52c36 49 38 113 38 174s-2 125 -38 174c-29 39 -79 52 -128 52z" />
    <glyph glyph-name="Yacute" unicode="&#xdd;" horiz-adv-x="567" 
d="M5 940h56l225 -677l224 677h51l-251 -759v-181h-53v181zM343 1198h61l-114 -188h-45z" />
    <glyph glyph-name="ecircumflex" unicode="&#xea;" horiz-adv-x="540" 
d="M499 155c-5 -46 -17 -89 -49 -122c-44 -45 -109 -53 -172 -53h-11c-65 0 -131 13 -172 63c-47 58 -51 136 -51 211s4 153 51 211c41 50 107 63 172 63h11c65 0 131 -13 172 -63c47 -58 51 -136 51 -211v-24h-404c1 -54 7 -108 39 -150c30 -40 81 -52 131 -52h11
c48 0 98 7 131 42c23 25 33 56 37 90zM448 278c-1 54 -7 108 -39 150c-30 40 -81 52 -131 52h-11c-50 0 -101 -12 -131 -52c-32 -42 -38 -96 -39 -150h351zM272 727l-92 -141h-46l108 188h61l108 -188h-46z" />
    <glyph glyph-name="ocircumflex" unicode="&#xf4;" horiz-adv-x="545" 
d="M278 480h-11c-50 0 -101 -12 -131 -52c-37 -49 -40 -113 -40 -174s3 -125 40 -174c30 -40 81 -52 131 -52h11c50 0 101 12 131 52c37 49 40 113 40 174s-3 125 -40 174c-30 40 -81 52 -131 52zM278 528c65 0 131 -13 172 -63c47 -58 51 -136 51 -211s-4 -153 -51 -211
c-41 -50 -107 -63 -172 -63h-11c-65 0 -131 13 -172 63c-47 58 -51 136 -51 211s4 153 51 211c41 50 107 63 172 63h11zM272 727l-92 -141h-46l108 188h61l108 -188h-46z" />
    <glyph glyph-name="eogonek" unicode="&#x119;" horiz-adv-x="540" 
d="M250 -226c38 0 77 8 86 42l42 -9c-4 -18 -12 -35 -27 -47c-28 -22 -65 -24 -101 -24h-5c-36 0 -73 2 -101 24c-23 19 -30 50 -30 80c0 53 61 75 94 114l24 27c-53 5 -104 21 -137 62c-47 58 -51 136 -51 211s4 153 51 211c41 50 107 63 172 63h11c65 0 131 -13 172 -63
c47 -58 51 -136 51 -211v-24h-404c1 -54 7 -108 39 -150c30 -40 81 -52 131 -52h6l10 10l3 -10c46 1 92 9 123 42c23 25 33 56 37 90l53 -5c-5 -46 -17 -89 -49 -122c-44 -45 -109 -53 -172 -53h-1l-57 -65c-22 -26 -64 -39 -64 -75c0 -19 6 -40 21 -51
c19 -14 44 -15 68 -15h5zM448 278c-1 54 -7 108 -39 150c-30 40 -81 52 -131 52h-11c-50 0 -101 -12 -131 -52c-32 -42 -38 -96 -39 -150h351z" />
    <glyph glyph-name="ffi" unicode="&#xfb03;" horiz-adv-x="758" 
d="M238 922c-57 0 -57 -91 -57 -145v-269h202v207c0 68 0 138 35 196c24 40 69 59 116 59h7c47 0 92 -19 116 -59c21 -35 30 -74 33 -115l-53 -5c-3 29 -8 57 -20 83c-14 29 -44 48 -76 48h-7c-32 0 -62 -19 -76 -48c-21 -44 -22 -96 -22 -146v-220h256v-508h-53v460h-203
v-460h-53v460h-202v-460h-53v460h-98v48h98v269c0 51 0 105 25 149c17 30 51 44 85 44h3c34 0 67 -14 84 -44c8 -14 13 -29 17 -44l-51 -13c-6 27 -21 53 -50 53h-3z" />
    <glyph glyph-name="plus" unicode="+" horiz-adv-x="534" 
d="M241 508h52v-230h197v-48h-197v-230h-52v230h-197v48h197v230z" />
    <glyph glyph-name="Eogonek" unicode="&#x118;" horiz-adv-x="507" 
d="M421 -226c38 0 77 8 86 42l42 -9c-4 -18 -12 -35 -27 -47c-28 -22 -65 -24 -101 -24h-5c-36 0 -73 2 -101 24c-23 19 -30 50 -30 80c0 53 61 75 94 114l41 46h-344v940h393v-48h-340v-633h313v-48h-313v-163h340v-48h-3l-75 -85c-22 -26 -64 -39 -64 -75
c0 -19 6 -40 21 -51c19 -14 44 -15 68 -15h5z" />
    <glyph glyph-name="R" unicode="R" horiz-adv-x="550" 
d="M523 564c0 -114 -6 -255 -84 -325l106 -239h-59l-91 210c-33 -15 -71 -22 -108 -22h-158v-188h-53v940h211c72 0 144 -27 182 -87c53 -85 54 -189 54 -289zM129 892v-656h158c57 0 113 25 141 75c42 75 42 166 42 253s0 178 -42 253c-28 50 -84 75 -141 75h-158z" />
    <glyph glyph-name="ecaron" unicode="&#x11b;" horiz-adv-x="540" 
d="M499 155c-5 -46 -17 -89 -49 -122c-44 -45 -109 -53 -172 -53h-11c-65 0 -131 13 -172 63c-47 58 -51 136 -51 211s4 153 51 211c41 50 107 63 172 63h11c65 0 131 -13 172 -63c47 -58 51 -136 51 -211v-24h-404c1 -54 7 -108 39 -150c30 -40 81 -52 131 -52h11
c48 0 98 7 131 42c23 25 33 56 37 90zM365 774h46l-108 -188h-61l-108 188h46l92 -141zM448 278c-1 54 -7 108 -39 150c-30 40 -81 52 -131 52h-11c-50 0 -101 -12 -131 -52c-32 -42 -38 -96 -39 -150h351z" />
    <glyph glyph-name="V" unicode="V" horiz-adv-x="573" 
d="M9 940h54l226 -849l225 849h51l-250 -940h-57z" />
    <glyph glyph-name="AE" unicode="&#xc6;" horiz-adv-x="877" 
d="M11 0l405 940h423v-48h-344v-633h318v-48h-318v-163h344v-48h-397v152h-313l-66 -152h-52zM149 200h293v680z" />
    <glyph glyph-name="bracketright" unicode="]" horiz-adv-x="305" 
d="M33 987h174v-1237h-174v48h121v1141h-121v48z" />
    <glyph glyph-name="H" unicode="H" horiz-adv-x="654" 
d="M76 0v940h53v-681h396v681h53v-940h-53v211h-396v-211h-53z" />
    <glyph glyph-name="exclam" unicode="!" horiz-adv-x="293" 
d="M120 224v716h53v-716h-53zM146 83c12 0 24 -1 32 -9s10 -20 10 -32s-2 -24 -10 -32s-20 -10 -32 -10s-24 2 -32 10s-9 20 -9 32s1 24 9 32s20 9 32 9z" />
    <glyph glyph-name="Aogonek" unicode="&#x104;" horiz-adv-x="605" 
d="M543 -226c38 0 77 8 86 42l42 -9c-4 -18 -12 -35 -27 -47c-28 -22 -65 -24 -101 -24h-5c-36 0 -73 2 -101 24c-23 19 -30 50 -30 80c0 53 61 75 94 114l41 46h-3l-38 136h-402l-38 -136h-50l263 940h57l263 -940h-6l-75 -85c-22 -26 -63 -39 -63 -75c0 -19 5 -40 20 -51
c19 -14 44 -15 68 -15h5zM488 184l-188 670l-187 -670h375z" />
    <glyph glyph-name="L" unicode="L" horiz-adv-x="501" 
d="M76 0v940h53v-892h340v-48h-393z" />
    <glyph glyph-name="comma" unicode="," horiz-adv-x="256" 
d="M124 102h59l-129 -254h-44z" />
    <glyph glyph-name="ydieresis" unicode="&#xff;" horiz-adv-x="458" 
d="M5 508h57l168 -428l168 428h54l-297 -758h-55l102 258zM131 727c12 0 25 -2 33 -10s10 -21 10 -33s-2 -25 -10 -33s-21 -10 -33 -10s-25 2 -33 10s-10 21 -10 33s2 25 10 33s21 10 33 10zM327 727c12 0 25 -2 33 -10s10 -21 10 -33s-2 -25 -10 -33s-21 -10 -33 -10
s-25 2 -33 10s-10 21 -10 33s2 25 10 33s21 10 33 10z" />
    <glyph glyph-name="O" unicode="O" horiz-adv-x="763" 
d="M390 912h-17c-83 0 -166 -32 -209 -102c-62 -101 -62 -222 -62 -340s0 -239 62 -340c43 -70 126 -102 209 -102h17c83 0 166 32 209 102c62 101 62 222 62 340s0 239 -62 340c-43 70 -126 102 -209 102zM390 960c98 0 196 -32 249 -113c72 -110 75 -246 75 -377
s-3 -267 -75 -377c-53 -81 -151 -113 -249 -113h-17c-98 0 -196 32 -249 113c-72 110 -75 246 -75 377s3 267 75 377c53 81 151 113 249 113h17z" />
    <glyph glyph-name="bar" unicode="|" horiz-adv-x="218" 
d="M83 -47v1034h52v-1034h-52z" />
    <glyph glyph-name="underscore" unicode="_" horiz-adv-x="512" 
d="M33 -110v48h447v-48h-447z" />
    <glyph glyph-name="circumflex" unicode="&#x2c6;" horiz-adv-x="229" 
d="M114 893l-92 -141h-46l107 188h62l108 -188h-46z" />
    <glyph glyph-name="Ecircumflex" unicode="&#xca;" horiz-adv-x="507" 
d="M76 0v940h393v-48h-340v-633h313v-48h-313v-163h340v-48h-393zM272 1151l-92 -141h-46l108 188h61l108 -188h-46z" />
    <glyph glyph-name="asterisk" unicode="*" horiz-adv-x="507" 
d="M227 940h53v-209l129 91v-61l-122 -87l122 -204h-59l-97 163l-97 -163h-58l122 204l-122 87v61l129 -91v209z" />
    <glyph glyph-name="dcaron" unicode="&#x10f;" horiz-adv-x="561" 
d="M490 0h-52v254c0 -73 0 -149 -38 -211c-26 -43 -77 -63 -128 -63h-10c-63 0 -129 14 -168 63c-46 58 -50 136 -50 211s4 153 50 211c39 49 105 63 168 63h10c51 0 102 -20 128 -63c38 -62 38 -138 38 -211v696h52v-950zM624 950h54l-98 -306h-40zM272 480h-10
c-49 0 -99 -13 -128 -52c-36 -49 -38 -113 -38 -174s2 -125 38 -174c29 -39 79 -52 128 -52h10c49 0 99 13 128 52c36 49 38 113 38 174s-2 125 -38 174c-29 39 -79 52 -128 52z" />
    <glyph glyph-name="Ecaron" unicode="&#x11a;" horiz-adv-x="507" 
d="M76 0v940h393v-48h-340v-633h313v-48h-313v-163h340v-48h-393zM365 1198h46l-108 -188h-61l-108 188h46l92 -140z" />
    <glyph glyph-name="Udieresis" unicode="&#xdc;" horiz-adv-x="647" 
d="M574 940v-666c0 -80 -5 -164 -56 -226c-45 -54 -118 -68 -188 -68h-12c-70 0 -144 14 -189 68c-51 62 -56 146 -56 226v666h53v-666c0 -67 3 -136 44 -189c34 -44 92 -57 148 -57h12c56 0 113 13 147 57c41 53 45 122 45 189v666h52zM226 1151c12 0 25 -1 33 -9
s10 -22 10 -34s-2 -25 -10 -33s-21 -9 -33 -9s-25 1 -33 9s-10 21 -10 33s2 26 10 34s21 9 33 9zM422 1151c12 0 25 -1 33 -9s10 -22 10 -34s-2 -25 -10 -33s-21 -9 -33 -9s-25 1 -33 9s-10 21 -10 33s2 26 10 34s21 9 33 9z" />
    <glyph glyph-name="Zcaron" unicode="&#x17d;" horiz-adv-x="556" 
d="M27 892v48h502v-57l-448 -835h448v-48h-502v57l448 835h-448zM370 1198h46l-107 -188h-62l-107 188h46l92 -140z" />
    <glyph glyph-name="acute" unicode="&#xb4;" horiz-adv-x="218" 
d="M130 940h61l-114 -188h-45z" />
    <glyph glyph-name="uni1E9E" unicode="&#x1e9e;" horiz-adv-x="1057" 
d="M46 176l53 5c4 -37 14 -73 37 -103c31 -39 81 -50 131 -50h11c50 0 103 8 134 47c37 47 37 110 37 170c0 77 -33 152 -99 189l-161 29c-84 48 -129 142 -129 240c0 71 0 147 45 202c38 47 102 55 163 55h10c60 0 122 -13 159 -59c29 -36 40 -80 45 -125l-53 -5
c-4 34 -12 66 -32 93c-27 36 -73 48 -119 48h-10c-46 0 -95 -8 -122 -45c-33 -45 -33 -107 -33 -164c0 -78 35 -154 103 -192l161 -29c83 -47 125 -141 125 -237c0 -74 0 -152 -48 -208c-42 -49 -111 -57 -176 -57h-11c-64 0 -131 12 -172 61c-32 38 -44 86 -49 135z
M553 176l52 5c4 -37 14 -73 37 -103c31 -39 82 -50 132 -50h10c50 0 104 8 135 47c35 45 36 104 36 161v9c0 77 -33 152 -99 189l-161 29c-84 48 -128 142 -128 240v9c0 68 1 140 44 193c38 47 102 55 163 55h10c60 0 123 -13 160 -59c29 -36 40 -80 45 -125l-53 -5
c-4 34 -13 66 -33 93c-27 36 -73 48 -119 48h-10c-46 0 -94 -8 -121 -45c-33 -45 -33 -107 -33 -164c0 -78 34 -154 102 -192l161 -29c83 -47 125 -141 125 -237c0 -74 0 -152 -48 -208c-42 -49 -111 -57 -176 -57h-10c-64 0 -132 12 -173 61c-32 38 -43 86 -48 135z" />
    <glyph glyph-name="Uhungarumlaut" unicode="&#x170;" horiz-adv-x="647" 
d="M574 940v-666c0 -80 -5 -164 -56 -226c-45 -54 -118 -68 -188 -68h-12c-70 0 -144 14 -189 68c-51 62 -56 146 -56 226v666h53v-666c0 -67 3 -136 44 -189c34 -44 92 -57 148 -57h12c56 0 113 13 147 57c41 53 45 122 45 189v666h52zM204 1010l90 188h60l-106 -188h-44z
M457 1198h60l-106 -188h-44z" />
    <glyph glyph-name="Atilde" unicode="&#xc3;" horiz-adv-x="605" 
d="M11 0l263 940h57l263 -940h-55l-38 136h-402l-38 -136h-50zM192 1015h-42c0 36 2 74 24 102c18 23 49 30 79 30c46 0 53 -75 99 -75c18 0 37 5 47 20c14 20 14 45 14 69h42c0 -36 -2 -73 -24 -101c-18 -23 -49 -31 -79 -31c-46 0 -53 75 -99 75c-18 0 -37 -5 -47 -20
c-14 -20 -14 -45 -14 -69zM488 184l-188 670l-187 -670h375z" />
    <glyph glyph-name="Dcaron" unicode="&#x10e;" horiz-adv-x="687" 
d="M76 0v940h219c100 0 202 -28 260 -108c74 -103 77 -235 77 -362s-3 -259 -77 -362c-58 -80 -160 -108 -260 -108h-219zM387 1198h46l-108 -188h-62l-107 188h46l92 -140zM129 48h166c85 0 172 27 219 97c63 94 65 212 65 325s-2 231 -65 325c-47 70 -134 97 -219 97h-166
v-844z" />
    <glyph glyph-name="equal" unicode="=" horiz-adv-x="534" 
d="M44 331v48h446v-48h-446zM44 128v48h446v-48h-446z" />
    <glyph glyph-name="C" unicode="C" horiz-adv-x="736" 
d="M709 315c-7 -79 -26 -155 -70 -222c-53 -81 -151 -113 -249 -113h-17c-98 0 -196 32 -249 113c-72 110 -75 246 -75 377s3 267 75 377c53 81 151 113 249 113h17c98 0 196 -32 249 -113c44 -67 63 -143 70 -222l-53 -5c-7 67 -21 132 -57 190c-43 70 -126 102 -209 102
h-17c-83 0 -166 -32 -209 -102c-62 -101 -62 -222 -62 -340s0 -239 62 -340c43 -70 126 -102 209 -102h17c83 0 166 32 209 102c36 58 50 123 57 190z" />
    <glyph glyph-name="Eth" unicode="&#xd0;" horiz-adv-x="730" 
d="M339 940c100 0 201 -28 259 -108c74 -103 78 -235 78 -362s-4 -259 -78 -362c-58 -80 -159 -108 -259 -108h-219v446h-82v48h82v446h219zM173 48h166c85 0 172 27 219 97c63 94 65 212 65 325s-2 231 -65 325c-47 70 -134 97 -219 97h-166v-398h225v-48h-225v-398z" />
    <glyph glyph-name="edieresis" unicode="&#xeb;" horiz-adv-x="540" 
d="M499 155c-5 -46 -17 -89 -49 -122c-44 -45 -109 -53 -172 -53h-11c-65 0 -131 13 -172 63c-47 58 -51 136 -51 211s4 153 51 211c41 50 107 63 172 63h11c65 0 131 -13 172 -63c47 -58 51 -136 51 -211v-24h-404c1 -54 7 -108 39 -150c30 -40 81 -52 131 -52h11
c48 0 98 7 131 42c23 25 33 56 37 90zM174 727c12 0 26 -2 34 -10s9 -21 9 -33s-1 -25 -9 -33s-22 -10 -34 -10s-25 2 -33 10s-10 21 -10 33s2 25 10 33s21 10 33 10zM371 727c12 0 25 -2 33 -10s10 -21 10 -33s-2 -25 -10 -33s-21 -10 -33 -10s-26 2 -34 10s-9 21 -9 33
s1 25 9 33s22 10 34 10zM448 278c-1 54 -7 108 -39 150c-30 40 -81 52 -131 52h-11c-50 0 -101 -12 -131 -52c-32 -42 -38 -96 -39 -150h351z" />
    <glyph glyph-name="ccaron" unicode="&#x10d;" horiz-adv-x="526" 
d="M498 175c-5 -48 -17 -95 -48 -132c-41 -50 -107 -63 -172 -63h-11c-65 0 -131 13 -172 63c-47 58 -51 136 -51 211s4 153 51 211c41 50 107 63 172 63h11c65 0 131 -13 172 -63c31 -37 43 -84 48 -132l-53 -5c-4 36 -14 71 -36 100c-30 40 -81 52 -131 52h-11
c-50 0 -101 -12 -131 -52c-37 -49 -40 -113 -40 -174s3 -125 40 -174c30 -40 81 -52 131 -52h11c50 0 101 12 131 52c22 29 32 64 36 100zM365 774h46l-108 -188h-61l-108 188h46l92 -141z" />
    <glyph glyph-name="cacute" unicode="&#x107;" horiz-adv-x="526" 
d="M498 175c-5 -48 -17 -95 -48 -132c-41 -50 -107 -63 -172 -63h-11c-65 0 -131 13 -172 63c-47 58 -51 136 -51 211s4 153 51 211c41 50 107 63 172 63h11c65 0 131 -13 172 -63c31 -37 43 -84 48 -132l-53 -5c-4 36 -14 71 -36 100c-30 40 -81 52 -131 52h-11
c-50 0 -101 -12 -131 -52c-37 -49 -40 -113 -40 -174s3 -125 40 -174c30 -40 81 -52 131 -52h11c50 0 101 12 131 52c22 29 32 64 36 100zM332 774h61l-114 -188h-45z" />
    <glyph glyph-name="odieresis" unicode="&#xf6;" horiz-adv-x="545" 
d="M174 727c12 0 26 -2 34 -10s9 -21 9 -33s-1 -25 -9 -33s-22 -10 -34 -10s-25 2 -33 10s-10 21 -10 33s2 25 10 33s21 10 33 10zM371 727c12 0 25 -2 33 -10s10 -21 10 -33s-2 -25 -10 -33s-21 -10 -33 -10s-26 2 -34 10s-9 21 -9 33s1 25 9 33s22 10 34 10zM278 480h-11
c-50 0 -101 -12 -131 -52c-37 -49 -40 -113 -40 -174s3 -125 40 -174c30 -40 81 -52 131 -52h11c50 0 101 12 131 52c37 49 40 113 40 174s-3 125 -40 174c-30 40 -81 52 -131 52zM278 528c65 0 131 -13 172 -63c47 -58 51 -136 51 -211s-4 -153 -51 -211
c-41 -50 -107 -63 -172 -63h-11c-65 0 -131 13 -172 63c-47 58 -51 136 -51 211s4 153 51 211c41 50 107 63 172 63h11z" />
    <glyph glyph-name="four" unicode="4" horiz-adv-x="540" 
d="M400 258v-258h-53v258h-312v57l308 625h57v-634h104v-48h-104zM347 306v528l-260 -528h260z" />
    <glyph glyph-name="adieresis" unicode="&#xe4;" horiz-adv-x="512" 
d="M447 0h-53v146c0 -46 -3 -94 -33 -128c-27 -31 -70 -38 -111 -38h-9c-54 0 -111 3 -152 38c-36 30 -45 80 -45 128s9 98 45 128c41 35 98 38 152 38h9c41 0 84 -7 111 -38c30 -34 33 -82 33 -128v166c0 46 -3 94 -33 129c-27 31 -70 39 -111 39h-9c-41 0 -84 -8 -111 -39
c-15 -17 -23 -38 -28 -60l-53 9c6 33 18 63 40 88c38 41 96 50 152 50h9c56 0 114 -9 152 -50c40 -44 45 -106 45 -166v-312zM147 727c12 0 25 -2 33 -10s10 -21 10 -33s-2 -25 -10 -33s-21 -10 -33 -10s-25 2 -33 10s-10 21 -10 33s2 25 10 33s21 10 33 10zM343 727
c12 0 25 -2 33 -10s10 -21 10 -33s-2 -25 -10 -33s-21 -10 -33 -10s-25 2 -33 10s-10 21 -10 33s2 25 10 33s21 10 33 10zM250 264h-9c-39 0 -80 -2 -111 -27c-26 -21 -34 -57 -34 -91s8 -70 34 -91c31 -25 72 -27 111 -27h9c39 0 80 2 111 27c26 21 33 57 33 91
s-7 70 -33 91c-31 25 -72 27 -111 27z" />
    <glyph glyph-name="Ydieresis" unicode="&#x178;" horiz-adv-x="567" 
d="M5 940h56l225 -677l224 677h51l-251 -759v-181h-53v181zM185 1151c12 0 25 -1 33 -9s10 -22 10 -34s-2 -25 -10 -33s-21 -9 -33 -9s-25 1 -33 9s-10 21 -10 33s2 26 10 34s21 9 33 9zM382 1151c12 0 25 -1 33 -9s9 -22 9 -34s-1 -25 -9 -33s-21 -9 -33 -9s-26 1 -34 9
s-10 21 -10 33s2 26 10 34s22 9 34 9z" />
    <glyph glyph-name="Thorn" unicode="&#xde;" horiz-adv-x="567" 
d="M76 0v940h53v-164h158c70 0 142 -20 182 -76c52 -72 54 -164 54 -253s-2 -182 -54 -254c-40 -56 -112 -76 -182 -76h-158v-117h-53zM129 728v-563h158c55 0 111 19 141 65c41 63 42 142 42 217s-1 153 -42 216c-30 46 -86 65 -141 65h-158z" />
    <glyph glyph-name="cedilla" unicode="&#xb8;" horiz-adv-x="218" 
d="M89 19h40l-15 -75c35 0 71 -2 98 -24c23 -19 30 -50 30 -80s-7 -61 -30 -80c-28 -22 -64 -24 -100 -24h-6c-36 0 -72 2 -100 24c-22 17 -29 44 -30 72l42 2c1 -17 6 -35 20 -45c19 -14 44 -15 68 -15h6c24 0 49 1 68 15c15 11 20 32 20 51s-5 40 -20 51
c-19 14 -44 15 -68 15h-45z" />
    <glyph glyph-name="p" unicode="p" horiz-adv-x="556" 
d="M65 -250v758h53v-254c0 73 0 149 38 211c26 43 77 63 128 63h10c63 0 129 -14 168 -63c46 -58 50 -136 50 -211s-4 -153 -50 -211c-39 -49 -105 -63 -168 -63h-10c-51 0 -102 20 -128 63c-38 62 -38 138 -38 211v-504h-53zM294 480h-10c-49 0 -99 -13 -128 -52
c-36 -49 -38 -113 -38 -174s2 -125 38 -174c29 -39 79 -52 128 -52h10c49 0 98 13 127 52c36 49 39 113 39 174s-3 125 -39 174c-29 39 -78 52 -127 52z" />
    <glyph glyph-name="semicolon" unicode=";" horiz-adv-x="262" 
d="M118 102h60l-129 -254h-45zM148 508c12 0 24 -2 32 -10s10 -20 10 -32s-2 -24 -10 -32s-20 -10 -32 -10s-24 2 -32 10s-10 20 -10 32s2 24 10 32s20 10 32 10z" />
    <glyph glyph-name="Idieresis" unicode="&#xcf;" horiz-adv-x="227" 
d="M87 0v940h53v-940h-53zM16 1151c12 0 25 -1 33 -9s9 -22 9 -34s-1 -25 -9 -33s-21 -9 -33 -9s-26 1 -34 9s-10 21 -10 33s2 26 10 34s22 9 34 9zM212 1151c12 0 25 -1 33 -9s10 -22 10 -34s-2 -25 -10 -33s-21 -9 -33 -9s-25 1 -33 9s-10 21 -10 33s2 26 10 34s21 9 33 9
z" />
    <glyph glyph-name="U" unicode="U" horiz-adv-x="647" 
d="M574 940v-666c0 -80 -5 -164 -56 -226c-45 -54 -118 -68 -188 -68h-12c-70 0 -144 14 -189 68c-51 62 -56 146 -56 226v666h53v-666c0 -67 3 -136 44 -189c34 -44 92 -57 148 -57h12c56 0 113 13 147 57c41 53 45 122 45 189v666h52z" />
    <glyph glyph-name="Agrave" unicode="&#xc0;" horiz-adv-x="605" 
d="M11 0l263 940h57l263 -940h-55l-38 136h-402l-38 -136h-50zM182 1198h61l98 -188h-45zM488 184l-188 670l-187 -670h375z" />
    <glyph glyph-name="dollar" unicode="$" horiz-adv-x="567" 
d="M46 176l53 5c4 -38 15 -74 39 -103c33 -40 85 -50 137 -50h11c52 0 108 7 141 47c38 47 38 110 38 170c0 78 -35 153 -103 189l-168 29c-87 46 -134 141 -134 240c0 71 1 147 47 202c35 42 91 53 147 55v168h53v-169c55 -3 109 -16 144 -58c29 -35 42 -79 47 -125l-53 -5
c-4 34 -13 66 -34 93c-29 37 -78 48 -125 48h-10c-48 0 -99 -8 -128 -45c-35 -45 -35 -106 -35 -164c0 -79 36 -155 106 -192l168 -29c86 -45 131 -139 131 -237c0 -74 -1 -152 -50 -208c-39 -45 -100 -55 -161 -57v-168h-53v168c-59 2 -118 17 -157 61
c-33 38 -46 85 -51 135z" />
    <glyph glyph-name="ncaron" unicode="&#x148;" 
d="M65 0v508h53v-172c0 53 4 107 39 147c31 36 81 45 129 45h9c47 0 95 -10 125 -45c34 -40 38 -94 38 -147v-336h-53v336c0 39 -1 79 -25 110c-19 25 -53 34 -85 34h-9c-46 0 -94 -4 -129 -34c-31 -27 -39 -69 -39 -110v-336h-53zM354 774h46l-107 -188h-62l-108 188h46
l93 -141z" />
    <glyph glyph-name="Ograve" unicode="&#xd2;" horiz-adv-x="763" 
d="M261 1198h61l98 -188h-45zM390 912h-17c-83 0 -166 -32 -209 -102c-62 -101 -62 -222 -62 -340s0 -239 62 -340c43 -70 126 -102 209 -102h17c83 0 166 32 209 102c62 101 62 222 62 340s0 239 -62 340c-43 70 -126 102 -209 102zM390 960c98 0 196 -32 249 -113
c72 -110 75 -246 75 -377s-3 -267 -75 -377c-53 -81 -151 -113 -249 -113h-17c-98 0 -196 32 -249 113c-72 110 -75 246 -75 377s3 267 75 377c53 81 151 113 249 113h17z" />
    <glyph glyph-name="Icircumflex" unicode="&#xce;" horiz-adv-x="227" 
d="M87 0v940h53v-940h-53zM114 1151l-93 -141h-46l108 188h62l107 -188h-46z" />
    <glyph glyph-name="e" unicode="e" horiz-adv-x="540" 
d="M499 155c-5 -46 -17 -89 -49 -122c-44 -45 -109 -53 -172 -53h-11c-65 0 -131 13 -172 63c-47 58 -51 136 -51 211s4 153 51 211c41 50 107 63 172 63h11c65 0 131 -13 172 -63c47 -58 51 -136 51 -211v-24h-404c1 -54 7 -108 39 -150c30 -40 81 -52 131 -52h11
c48 0 98 7 131 42c23 25 33 56 37 90zM448 278c-1 54 -7 108 -39 150c-30 40 -81 52 -131 52h-11c-50 0 -101 -12 -131 -52c-32 -42 -38 -96 -39 -150h351z" />
    <glyph glyph-name="breve" unicode="&#x2d8;" horiz-adv-x="229" 
d="M267 896c0 -34 -7 -70 -34 -91c-32 -25 -74 -27 -115 -27h-7c-41 0 -83 2 -115 27c-27 21 -34 57 -34 91h42c0 -22 7 -45 25 -58c24 -17 53 -18 82 -18h7c29 0 58 1 82 18c18 13 25 36 25 58h42z" />
    <glyph glyph-name="ampersand" unicode="&#x26;" horiz-adv-x="676" 
d="M547 0h-235c-64 0 -130 10 -173 57c-46 50 -52 122 -52 190s6 140 52 190c43 47 109 57 173 57h329v-48h-94v-446zM322 494c-65 0 -133 5 -181 48c-44 39 -54 102 -54 161c0 71 6 145 52 198c42 48 109 59 173 59h10c64 0 131 -11 173 -59c29 -33 41 -73 47 -116l-52 -8
c-5 32 -16 62 -36 87c-31 38 -82 48 -132 48h-10c-50 0 -102 -10 -133 -48c-36 -44 -39 -104 -39 -161s4 -118 42 -161c34 -39 88 -48 140 -48zM494 446h-182c-49 0 -101 -9 -133 -46c-36 -41 -39 -98 -39 -153s3 -112 39 -153c32 -37 84 -46 133 -46h182v398z" />
    <glyph glyph-name="d" unicode="d" horiz-adv-x="561" 
d="M490 0h-52v254c0 -73 0 -149 -38 -211c-26 -43 -77 -63 -128 -63h-10c-63 0 -129 14 -168 63c-46 58 -50 136 -50 211s4 153 50 211c39 49 105 63 168 63h10c51 0 102 -20 128 -63c38 -62 38 -138 38 -211v696h52v-950zM272 480h-10c-49 0 -99 -13 -128 -52
c-36 -49 -38 -113 -38 -174s2 -125 38 -174c29 -39 79 -52 128 -52h10c49 0 99 13 128 52c36 49 38 113 38 174s-2 125 -38 174c-29 39 -79 52 -128 52z" />
    <glyph glyph-name="dotlessi" unicode="&#x131;" horiz-adv-x="207" 
d="M77 0v508h53v-508h-53z" />
    <glyph glyph-name="Oslash" unicode="&#xd8;" horiz-adv-x="763" 
d="M390 912h-17c-83 0 -166 -32 -209 -102c-62 -101 -62 -222 -62 -340c0 -103 1 -210 42 -302l449 651c-44 64 -123 93 -203 93zM390 960c90 0 181 -27 236 -94l51 74h59l-82 -118c58 -105 60 -231 60 -352c0 -131 -3 -267 -75 -377c-53 -81 -151 -113 -249 -113h-17
c-90 0 -181 27 -236 94l-51 -74h-59l82 118c-58 105 -60 231 -60 352c0 131 3 267 75 377c53 81 151 113 249 113h17zM170 121c44 -64 123 -93 203 -93h17c83 0 166 32 209 102c62 101 62 222 62 340c0 103 -1 210 -42 302z" />
    <glyph glyph-name="Acircumflex" unicode="&#xc2;" horiz-adv-x="605" 
d="M11 0l263 940h57l263 -940h-55l-38 136h-402l-38 -136h-50zM488 184l-188 670l-187 -670h375zM302 1151l-92 -141h-46l108 188h61l108 -188h-46z" />
    <glyph glyph-name="w" unicode="w" horiz-adv-x="703" 
d="M5 508h57l182 -444l81 199l-100 245h57l72 -175l71 175h53l-98 -239l84 -205l181 444h53l-208 -508h-57l-81 199l-82 -199h-57z" />
    <glyph glyph-name="braceright" unicode="}" horiz-adv-x="332" 
d="M196 380c-48 38 -53 119 -53 187v188c0 67 -18 135 -63 184c-15 16 -33 29 -52 39l22 45c25 -12 49 -28 69 -49c55 -58 76 -139 76 -219v-188c0 -43 1 -87 21 -124c13 -24 39 -37 67 -37v-53c-28 0 -54 -13 -67 -37c-20 -37 -21 -81 -21 -124v-188
c0 -80 -21 -161 -76 -219c-20 -21 -44 -37 -69 -49l-22 45c19 10 37 23 52 39c45 49 63 117 63 184v188c0 68 5 150 53 188z" />
    <glyph glyph-name="nacute" unicode="&#x144;" 
d="M65 0v508h53v-172c0 53 4 107 39 147c31 36 81 45 129 45h9c47 0 95 -10 125 -45c34 -40 38 -94 38 -147v-336h-53v336c0 39 -1 79 -25 110c-19 25 -53 34 -85 34h-9c-46 0 -94 -4 -129 -34c-31 -27 -39 -69 -39 -110v-336h-53zM321 774h61l-114 -188h-45z" />
    <glyph glyph-name="lslash" unicode="&#x142;" horiz-adv-x="251" 
d="M99 530v420h53v-376l89 73v-59l-89 -73v-515h-53v471l-89 -73v59z" />
    <glyph glyph-name="Ccaron" unicode="&#x10c;" horiz-adv-x="736" 
d="M709 315c-7 -79 -26 -155 -70 -222c-53 -81 -151 -113 -249 -113h-17c-98 0 -196 32 -249 113c-72 110 -75 246 -75 377s3 267 75 377c53 81 151 113 249 113h17c98 0 196 -32 249 -113c44 -67 63 -143 70 -222l-53 -5c-7 67 -21 132 -57 190c-43 70 -126 102 -209 102
h-17c-83 0 -166 -32 -209 -102c-62 -101 -62 -222 -62 -340s0 -239 62 -340c43 -70 126 -102 209 -102h17c83 0 166 32 209 102c36 58 50 123 57 190zM474 1198h46l-108 -188h-61l-108 188h46l93 -140z" />
    <glyph glyph-name="Uacute" unicode="&#xda;" horiz-adv-x="647" 
d="M574 940v-666c0 -80 -5 -164 -56 -226c-45 -54 -118 -68 -188 -68h-12c-70 0 -144 14 -189 68c-51 62 -56 146 -56 226v666h53v-666c0 -67 3 -136 44 -189c34 -44 92 -57 148 -57h12c56 0 113 13 147 57c41 53 45 122 45 189v666h52zM383 1198h61l-114 -188h-45z" />
    <glyph glyph-name="v" unicode="v" horiz-adv-x="458" 
d="M5 508h57l168 -438l168 438h54l-195 -508h-57z" />
    <glyph glyph-name="E" unicode="E" horiz-adv-x="507" 
d="M76 0v940h393v-48h-340v-633h313v-48h-313v-163h340v-48h-393z" />
    <glyph glyph-name="B" unicode="B" horiz-adv-x="572" 
d="M76 0v940h229c61 0 120 -28 149 -82c45 -82 45 -182 45 -277c0 -83 -1 -169 -45 -239c-31 -50 -90 -71 -149 -71c58 0 118 0 168 -31c35 -22 50 -64 50 -105s-15 -82 -50 -104c-50 -31 -110 -31 -168 -31h-229zM129 892v-621h176c47 0 89 28 109 71c31 67 32 148 32 225
v28c0 77 -1 159 -32 226c-20 43 -62 71 -109 71h-176zM129 223v-175h176c44 0 89 0 127 20c24 13 38 39 38 67s-14 55 -38 68c-38 20 -83 20 -127 20h-176z" />
    <glyph glyph-name="s" unicode="s" horiz-adv-x="436" 
d="M35 99l52 7c3 -21 12 -41 28 -54c27 -22 64 -24 99 -24h8c36 0 73 0 101 23c24 19 27 51 27 82c0 42 -26 80 -66 90l-123 16c-65 16 -111 74 -111 140c0 43 3 88 35 117c34 31 84 32 130 32h6c46 0 94 -5 128 -35c23 -20 32 -49 36 -79l-53 -6c-3 19 -10 35 -24 48
c-23 21 -56 24 -87 24h-6c-31 0 -66 -1 -89 -22c-21 -19 -24 -50 -24 -79c0 -43 29 -82 71 -92l123 -16c63 -16 107 -73 107 -138c0 -44 -5 -92 -39 -120c-39 -33 -92 -33 -142 -33h-8c-50 0 -102 3 -140 35c-25 21 -35 52 -39 84z" />
    <glyph glyph-name="OE" unicode="&#x152;" horiz-adv-x="916" 
d="M342 912h-14c-73 0 -141 -38 -174 -102c-52 -102 -52 -224 -52 -340s0 -238 52 -340c33 -64 101 -102 174 -102h14c73 0 141 38 174 102c52 102 52 224 52 340s0 238 -52 340c-33 64 -101 102 -174 102zM342 960c87 0 171 -38 214 -113l12 -21v114h309v-48h-257v-633h231
v-48h-231v-163h257v-48h-309v114l-12 -21c-43 -75 -127 -113 -214 -113h-14c-87 0 -172 38 -215 113c-64 113 -64 247 -64 377s0 264 64 377c43 75 128 113 215 113h14z" />
    <glyph glyph-name="caron" unicode="&#x2c7;" horiz-adv-x="229" 
d="M207 940h46l-108 -188h-62l-107 188h46l92 -141z" />
    <glyph glyph-name="eth" unicode="&#xf0;" horiz-adv-x="572" 
d="M177 686v53l128 53c-37 56 -80 110 -128 158h66c40 -43 76 -89 108 -138l163 69v-52l-137 -58c92 -156 141 -334 141 -517c0 -75 -6 -154 -54 -211c-43 -50 -112 -63 -178 -63h-11c-66 0 -135 13 -178 63c-48 57 -53 136 -53 211s5 154 53 211c43 50 112 63 178 63h11
c54 0 109 -18 138 -63c18 -27 27 -57 33 -88c-17 132 -60 260 -127 374zM465 254c0 61 -3 126 -41 174c-32 40 -86 52 -138 52h-11c-52 0 -105 -12 -137 -52c-38 -48 -42 -113 -42 -174s4 -126 42 -174c32 -40 85 -52 137 -52h11c52 0 106 12 138 52c38 48 41 113 41 174z
" />
    <glyph glyph-name="Rcaron" unicode="&#x158;" horiz-adv-x="550" 
d="M523 564c0 -114 -6 -255 -84 -325l106 -239h-59l-91 210c-33 -15 -71 -22 -108 -22h-158v-188h-53v940h211c72 0 144 -27 182 -87c53 -85 54 -189 54 -289zM343 1198h46l-107 -188h-62l-108 188h46l93 -140zM129 892v-656h158c57 0 113 25 141 75c42 75 42 166 42 253
s0 178 -42 253c-28 50 -84 75 -141 75h-158z" />
    <glyph glyph-name="zacute" unicode="&#x17a;" horiz-adv-x="403" 
d="M27 460v48h349v-57l-292 -403h292v-48h-349v57l292 403h-292zM261 774h61l-114 -188h-45z" />
    <glyph glyph-name="uring" unicode="&#x16f;" 
d="M452 508v-508h-52v172c0 -52 -2 -106 -32 -148c-24 -33 -67 -44 -108 -44h-8c-54 0 -110 6 -148 44s-44 94 -44 148v336h53v-336c0 -40 4 -82 32 -111c27 -28 68 -33 107 -33h8c39 0 81 5 108 33c28 29 32 71 32 111v336h52zM258 758h-4c-16 0 -32 -5 -41 -18
c-12 -17 -13 -39 -13 -60s1 -43 13 -60c9 -13 25 -18 41 -18h4c16 0 33 5 42 18c12 17 12 39 12 60s0 43 -12 60c-9 13 -26 18 -42 18zM258 790c26 0 53 -5 69 -25c19 -23 20 -55 20 -85s-1 -62 -20 -85c-16 -20 -43 -25 -69 -25h-4c-26 0 -52 5 -68 25
c-19 23 -21 55 -21 85s2 62 21 85c16 20 42 25 68 25h4z" />
    <glyph glyph-name="I" unicode="I" horiz-adv-x="227" 
d="M87 0v940h53v-940h-53z" />
    <glyph glyph-name="ntilde" unicode="&#xf1;" 
d="M65 0v508h53v-172c0 53 4 107 39 147c31 36 81 45 129 45h9c47 0 95 -10 125 -45c34 -40 38 -94 38 -147v-336h-53v336c0 39 -1 79 -25 110c-19 25 -53 34 -85 34h-9c-46 0 -94 -4 -129 -34c-31 -27 -39 -69 -39 -110v-336h-53zM151 591h-42c0 36 2 73 24 101
c18 23 50 30 80 30c46 0 52 -74 98 -74c18 0 37 5 47 20c14 20 14 44 14 68h42c0 -36 -2 -73 -24 -101c-18 -23 -49 -30 -79 -30c-46 0 -52 75 -98 75c-18 0 -38 -6 -48 -21c-14 -20 -14 -44 -14 -68z" />
    <glyph glyph-name="Uring" unicode="&#x16e;" horiz-adv-x="647" 
d="M574 940v-666c0 -80 -5 -164 -56 -226c-45 -54 -118 -68 -188 -68h-12c-70 0 -144 14 -189 68c-51 62 -56 146 -56 226v666h53v-666c0 -67 3 -136 44 -189c34 -44 92 -57 148 -57h12c56 0 113 13 147 57c41 53 45 122 45 189v666h52zM325 1182h-3c-16 0 -33 -4 -42 -17
c-12 -17 -12 -40 -12 -61s0 -43 12 -60c9 -13 26 -18 42 -18h3c16 0 33 5 42 18c12 17 13 39 13 60s-1 44 -13 61c-9 13 -26 17 -42 17zM325 1214c26 0 53 -5 69 -25c19 -23 21 -55 21 -85s-2 -61 -21 -84c-16 -20 -43 -26 -69 -26h-3c-26 0 -53 6 -69 26
c-19 23 -20 54 -20 84s1 62 20 85c16 20 43 25 69 25h3z" />
    <glyph glyph-name="tcedilla" unicode="&#x163;" horiz-adv-x="294" 
d="M8 460v48h113v442h53v-442h112v-48h-112v-460h-11l-11 -56c35 0 71 -2 98 -24c23 -19 31 -50 31 -80s-8 -61 -31 -80c-28 -22 -64 -24 -100 -24h-6c-36 0 -72 2 -100 24c-22 17 -29 44 -30 72l42 2c1 -17 6 -35 20 -45c19 -14 44 -15 68 -15h6c24 0 49 1 68 15
c15 11 20 32 20 51s-5 40 -20 51c-19 14 -44 15 -68 15h-45l19 94h-3v460h-113z" />
    <glyph glyph-name="ucircumflex" unicode="&#xfb;" 
d="M452 508v-508h-52v172c0 -52 -2 -106 -32 -148c-24 -33 -67 -44 -108 -44h-8c-54 0 -110 6 -148 44s-44 94 -44 148v336h53v-336c0 -40 4 -82 32 -111c27 -28 68 -33 107 -33h8c39 0 81 5 108 33c28 29 32 71 32 111v336h52zM256 727l-92 -141h-46l107 188h62l107 -188
h-45z" />
    <glyph glyph-name="Egrave" unicode="&#xc8;" horiz-adv-x="507" 
d="M76 0v940h393v-48h-340v-633h313v-48h-313v-163h340v-48h-393zM152 1198h61l98 -188h-45z" />
    <glyph glyph-name="j" unicode="j" horiz-adv-x="229" 
d="M164 508v-619c0 -44 -3 -89 -32 -122c-26 -30 -68 -37 -108 -37h-5c-40 0 -81 7 -107 37c-17 20 -25 43 -29 69l53 8c3 -15 8 -28 17 -40c15 -20 41 -26 66 -26h5c25 0 52 6 67 26c18 24 20 55 20 85v619h53zM125 727c12 0 25 -2 33 -10s10 -21 10 -33s-2 -25 -10 -33
s-21 -10 -33 -10s-25 2 -33 10s-10 21 -10 33s2 25 10 33s21 10 33 10z" />
    <glyph glyph-name="Oacute" unicode="&#xd3;" horiz-adv-x="763" 
d="M441 1198h61l-114 -188h-45zM390 912h-17c-83 0 -166 -32 -209 -102c-62 -101 -62 -222 -62 -340s0 -239 62 -340c43 -70 126 -102 209 -102h17c83 0 166 32 209 102c62 101 62 222 62 340s0 239 -62 340c-43 70 -126 102 -209 102zM390 960c98 0 196 -32 249 -113
c72 -110 75 -246 75 -377s-3 -267 -75 -377c-53 -81 -151 -113 -249 -113h-17c-98 0 -196 32 -249 113c-72 110 -75 246 -75 377s3 267 75 377c53 81 151 113 249 113h17z" />
    <glyph glyph-name="ae" unicode="&#xe6;" horiz-adv-x="807" 
d="M561 -20c-66 0 -127 21 -160 75c-6 -14 -15 -26 -26 -37c-36 -34 -89 -38 -139 -38h-7c-50 0 -103 4 -139 38c-34 32 -41 81 -41 128s7 96 41 128c36 34 89 38 139 38h7c37 0 76 -9 98 -38c27 -36 29 -83 29 -128v166c0 45 -2 93 -29 129c-22 29 -61 39 -98 39h-7
c-37 0 -76 -10 -98 -39c-13 -18 -20 -38 -24 -59l-53 8c5 32 15 63 36 88c33 39 87 50 139 50h7c52 0 106 -11 139 -50c9 -10 16 -22 21 -34c4 7 8 14 13 21c34 47 93 63 152 63h9c59 0 119 -16 153 -63c43 -60 45 -137 45 -211v-24h-352c1 -53 6 -106 34 -150
c24 -37 67 -52 111 -52h9c42 0 86 9 112 42c21 26 29 56 32 89l53 -4c-4 -45 -15 -88 -44 -122c-37 -43 -96 -53 -153 -53h-9zM236 264h-7c-35 0 -72 -3 -98 -27c-24 -23 -29 -58 -29 -91s5 -68 29 -91c26 -24 63 -27 98 -27h7c35 0 72 3 98 27c24 23 29 58 29 91
s-5 68 -29 91c-26 24 -63 27 -98 27zM716 278c-1 53 -6 106 -34 150c-24 37 -68 52 -112 52h-9c-44 0 -87 -15 -111 -52c-28 -44 -33 -97 -34 -150h300z" />
    <glyph glyph-name="c" unicode="c" horiz-adv-x="526" 
d="M498 175c-5 -48 -17 -95 -48 -132c-41 -50 -107 -63 -172 -63h-11c-65 0 -131 13 -172 63c-47 58 -51 136 -51 211s4 153 51 211c41 50 107 63 172 63h11c65 0 131 -13 172 -63c31 -37 43 -84 48 -132l-53 -5c-4 36 -14 71 -36 100c-30 40 -81 52 -131 52h-11
c-50 0 -101 -12 -131 -52c-37 -49 -40 -113 -40 -174s3 -125 40 -174c30 -40 81 -52 131 -52h11c50 0 101 12 131 52c22 29 32 64 36 100z" />
    <glyph glyph-name="Lcaron" unicode="&#x13d;" horiz-adv-x="501" 
d="M76 0v940h53v-892h340v-48h-393zM340 940h54l-97 -306h-40z" />
    <glyph glyph-name="D" unicode="D" horiz-adv-x="687" 
d="M76 0v940h219c100 0 202 -28 260 -108c74 -103 77 -235 77 -362s-3 -259 -77 -362c-58 -80 -160 -108 -260 -108h-219zM129 48h166c85 0 172 27 219 97c63 94 65 212 65 325s-2 231 -65 325c-47 70 -134 97 -219 97h-166v-844z" />
    <glyph glyph-name="icircumflex" unicode="&#xee;" horiz-adv-x="207" 
d="M77 0v508h53v-508h-53zM104 727l-93 -141h-46l108 188h62l107 -188h-46z" />
    <glyph glyph-name="gbreve" unicode="&#x11f;" horiz-adv-x="556" 
d="M490 508v-568c0 -59 -8 -121 -50 -162c-44 -42 -107 -48 -168 -48h-10c-61 0 -124 6 -168 48c-24 23 -36 52 -43 84l52 11c5 -22 15 -42 31 -58c33 -32 82 -37 128 -37h10c46 0 95 5 128 37c32 32 38 80 38 125v324c0 -70 -1 -143 -38 -203c-27 -42 -78 -61 -128 -61h-10
c-63 0 -128 13 -168 61c-46 56 -50 131 -50 203s4 147 50 203c40 48 105 61 168 61h10c50 0 101 -19 128 -61c37 -60 38 -133 38 -203v244h52zM420 730c0 -34 -8 -70 -35 -91c-32 -25 -74 -27 -115 -27h-6c-41 0 -83 2 -115 27c-27 21 -34 57 -34 91h42c0 -22 6 -45 24 -58
c24 -17 54 -18 83 -18h6c29 0 59 1 83 18c18 13 24 36 24 58h43zM272 480h-10c-48 0 -99 -12 -128 -50c-36 -46 -38 -108 -38 -166s2 -120 38 -166c29 -38 80 -50 128 -50h10c48 0 99 12 128 50c36 46 38 108 38 166s-2 120 -38 166c-29 38 -80 50 -128 50z" />
    <glyph glyph-name="ij" unicode="&#x133;" horiz-adv-x="501" 
d="M98 508h53v-508h-53v508zM436 508v-619c0 -44 -5 -90 -35 -122c-29 -31 -74 -37 -117 -37h-6c-43 0 -88 6 -117 37c-18 19 -27 43 -31 69l52 9c3 -15 9 -29 20 -41c19 -21 48 -26 76 -26h6c28 0 57 5 76 26c20 23 23 54 23 85v619h53zM401 736c12 0 25 -2 33 -10
s10 -21 10 -33s-2 -25 -10 -33s-21 -10 -33 -10s-26 2 -34 10s-9 21 -9 33s1 25 9 33s22 10 34 10zM134 736c12 0 25 -2 33 -10s10 -21 10 -33s-2 -25 -10 -33s-21 -10 -33 -10s-26 2 -34 10s-9 21 -9 33s1 25 9 33s22 10 34 10z" />
    <glyph glyph-name="n" unicode="n" 
d="M65 0v508h53v-172c0 53 4 107 39 147c31 36 81 45 129 45h9c47 0 95 -10 125 -45c34 -40 38 -94 38 -147v-336h-53v336c0 39 -1 79 -25 110c-19 25 -53 34 -85 34h-9c-46 0 -94 -4 -129 -34c-31 -27 -39 -69 -39 -110v-336h-53z" />
    <glyph glyph-name="percent" unicode="%" horiz-adv-x="894" 
d="M140 -47l555 1034h59l-555 -1034h-59zM235 892h-5c-29 0 -56 -14 -69 -40c-21 -40 -21 -90 -21 -136s0 -95 21 -135c13 -26 40 -40 69 -40h5c29 0 56 14 69 40c21 40 21 89 21 135s0 96 -21 136c-13 26 -40 40 -69 40zM235 940c43 0 87 -15 110 -51
c32 -50 33 -113 33 -173s-1 -122 -33 -172c-23 -36 -67 -51 -110 -51h-5c-43 0 -87 15 -110 51c-32 50 -33 112 -33 172s1 123 33 173c23 36 67 51 110 51h5zM664 399h-6c-29 0 -56 -14 -69 -40c-19 -37 -20 -81 -20 -123v-24c0 -43 1 -87 20 -124c13 -26 40 -40 69 -40h6
c29 0 56 14 69 40c21 40 21 90 21 136s0 95 -21 135c-13 26 -40 40 -69 40zM664 447c43 0 87 -15 110 -51c32 -50 33 -112 33 -172s-1 -123 -33 -173c-23 -36 -67 -51 -110 -51h-6c-43 0 -86 15 -109 51c-32 50 -33 113 -33 173s1 122 33 172c23 36 66 51 109 51h6z" />
    <glyph glyph-name="q" unicode="q" horiz-adv-x="556" 
d="M490 -250h-52v504c0 -73 0 -149 -38 -211c-26 -43 -77 -63 -128 -63h-10c-63 0 -129 14 -168 63c-46 58 -50 136 -50 211s4 153 50 211c39 49 105 63 168 63h10c51 0 102 -20 128 -63c38 -62 38 -138 38 -211v254h52v-758zM272 480h-10c-49 0 -99 -13 -128 -52
c-36 -49 -38 -113 -38 -174s2 -125 38 -174c29 -39 79 -52 128 -52h10c49 0 99 13 128 52c36 49 38 113 38 174s-2 125 -38 174c-29 39 -79 52 -128 52z" />
    <glyph glyph-name="Racute" unicode="&#x154;" horiz-adv-x="550" 
d="M523 564c0 -114 -6 -255 -84 -325l106 -239h-59l-91 210c-33 -15 -71 -22 -108 -22h-158v-188h-53v940h211c72 0 144 -27 182 -87c53 -85 54 -189 54 -289zM310 1198h61l-114 -188h-45zM129 892v-656h158c57 0 113 25 141 75c42 75 42 166 42 253s0 178 -42 253
c-28 50 -84 75 -141 75h-158z" />
    <glyph glyph-name="x" unicode="x" horiz-adv-x="441" 
d="M23 508h61l137 -201l138 201h60l-168 -245l180 -263h-62l-149 218l-149 -218h-60l179 262z" />
    <glyph glyph-name="S" unicode="S" horiz-adv-x="567" 
d="M46 176l53 5c4 -38 15 -74 39 -103c33 -40 85 -50 137 -50h11c52 0 108 7 141 47c38 47 38 110 38 170c0 78 -35 153 -103 189l-168 29c-87 46 -134 141 -134 240c0 71 1 147 47 202c40 48 106 55 169 55h10c62 0 126 -12 165 -59c29 -35 42 -79 47 -125l-52 -14
c-3 37 -12 73 -35 102c-29 37 -78 48 -125 48h-10c-48 0 -99 -8 -128 -45c-35 -45 -35 -106 -35 -164c0 -79 36 -155 106 -192l168 -29c86 -45 131 -139 131 -237c0 -74 -1 -152 -50 -208c-44 -50 -115 -57 -182 -57h-11c-66 0 -135 11 -178 61c-33 38 -46 85 -51 135z" />
    <glyph glyph-name="A" unicode="A" horiz-adv-x="605" 
d="M11 0l263 940h57l263 -940h-55l-38 136h-402l-38 -136h-50zM488 184l-188 670l-187 -670h375z" />
    <glyph glyph-name="Y" unicode="Y" horiz-adv-x="567" 
d="M5 940h56l225 -677l224 677h51l-251 -759v-181h-53v181z" />
    <glyph glyph-name="oslash" unicode="&#xf8;" horiz-adv-x="545" 
d="M278 480h-11c-50 0 -101 -12 -131 -52c-37 -49 -40 -113 -40 -174c0 -49 2 -100 22 -143l282 327c-31 31 -77 42 -122 42zM278 528c58 0 117 -11 158 -49l25 29h62l-57 -67c32 -55 35 -122 35 -187c0 -75 -4 -153 -51 -211c-41 -50 -107 -63 -172 -63h-11
c-58 0 -117 10 -158 48l-25 -28h-62l57 66c-32 55 -35 123 -35 188c0 75 4 153 51 211c41 50 107 63 172 63h11zM145 70c31 -31 77 -42 122 -42h11c50 0 101 12 131 52c37 49 40 113 40 174c0 49 -1 100 -21 143z" />
    <glyph glyph-name="dieresis" unicode="&#xa8;" horiz-adv-x="229" 
d="M16 893c12 0 25 -2 33 -10s10 -21 10 -33s-2 -25 -10 -33s-21 -10 -33 -10s-25 2 -33 10s-10 21 -10 33s2 25 10 33s21 10 33 10zM213 893c12 0 25 -2 33 -10s10 -21 10 -33s-2 -25 -10 -33s-21 -10 -33 -10s-26 2 -34 10s-9 21 -9 33s1 25 9 33s22 10 34 10z" />
    <glyph glyph-name="o" unicode="o" horiz-adv-x="545" 
d="M278 480h-11c-50 0 -101 -12 -131 -52c-37 -49 -40 -113 -40 -174s3 -125 40 -174c30 -40 81 -52 131 -52h11c50 0 101 12 131 52c37 49 40 113 40 174s-3 125 -40 174c-30 40 -81 52 -131 52zM278 528c65 0 131 -13 172 -63c47 -58 51 -136 51 -211s-4 -153 -51 -211
c-41 -50 -107 -63 -172 -63h-11c-65 0 -131 13 -172 63c-47 58 -51 136 -51 211s4 153 51 211c41 50 107 63 172 63h11z" />
    <glyph glyph-name="sacute" unicode="&#x15b;" horiz-adv-x="436" 
d="M35 99l52 7c3 -21 12 -41 28 -54c27 -22 64 -24 99 -24h8c36 0 73 0 101 23c24 19 27 51 27 82c0 42 -26 80 -66 90l-123 16c-65 16 -111 74 -111 140c0 43 3 88 35 117c34 31 84 32 130 32h6c46 0 94 -5 128 -35c23 -20 32 -49 36 -79l-53 -6c-3 19 -10 35 -24 48
c-23 21 -56 24 -87 24h-6c-31 0 -66 -1 -89 -22c-21 -19 -24 -50 -24 -79c0 -43 29 -82 71 -92l123 -16c63 -16 107 -73 107 -138c0 -44 -5 -92 -39 -120c-39 -33 -92 -33 -142 -33h-8c-50 0 -102 3 -140 35c-25 21 -35 52 -39 84zM278 774h60l-114 -188h-45z" />
    <glyph glyph-name="J" unicode="J" horiz-adv-x="480" 
d="M409 940v-711c0 -68 -4 -140 -47 -192c-37 -45 -99 -57 -158 -57h-10c-59 0 -121 12 -158 57c-43 52 -47 124 -47 192h53c0 -54 2 -112 35 -155c27 -35 72 -46 117 -46h10c45 0 90 11 117 46c33 43 35 101 35 155v711h53z" />
    <glyph glyph-name="dotaccent" unicode="&#x2d9;" horiz-adv-x="196" 
d="M98 893c12 0 25 -2 33 -10s10 -21 10 -33s-2 -25 -10 -33s-21 -10 -33 -10s-25 2 -33 10s-10 21 -10 33s2 25 10 33s21 10 33 10z" />
    <glyph glyph-name="y" unicode="y" horiz-adv-x="458" 
d="M5 508h57l168 -428l168 428h54l-297 -758h-55l102 258z" />
    <glyph glyph-name="yacute" unicode="&#xfd;" horiz-adv-x="458" 
d="M5 508h57l168 -428l168 428h54l-297 -758h-55l102 258zM288 774h61l-114 -188h-45z" />
    <glyph glyph-name="dotlessj" unicode="&#x237;" horiz-adv-x="229" 
d="M164 508v-619c0 -44 -3 -89 -32 -122c-26 -30 -68 -37 -108 -37h-5c-40 0 -81 7 -107 37c-17 20 -25 43 -29 69l53 8c3 -15 8 -28 17 -40c15 -20 41 -26 66 -26h5c25 0 52 6 67 26c18 24 20 55 20 85v619h53z" />
    <glyph glyph-name="braceleft" unicode="{" horiz-adv-x="332" 
d="M136 380c49 -37 54 -121 54 -188v-188c0 -67 17 -135 63 -184c8 -8 16 -15 25 -22l-29 -42c-12 9 -24 18 -35 29c-56 58 -77 139 -77 219v188c0 43 0 87 -20 124c-13 24 -40 37 -68 37v53c28 0 55 13 68 37c20 37 20 81 20 124v188c0 80 21 161 77 219c11 11 23 20 35 29
l29 -42c-9 -7 -17 -14 -25 -22c-46 -49 -63 -117 -63 -184v-188c0 -67 -5 -150 -54 -187z" />
    <glyph glyph-name="numbersign" unicode="#" horiz-adv-x="589" 
d="M22 305v48h128l31 234h-137v48h143l40 305h53l-40 -305h152l39 305h53l-40 -305h123v-48h-129l-30 -234h137v-48h-144l-39 -305h-53l39 305h-151l-40 -305h-53l40 305h-122zM355 353l30 234h-151l-31 -234h152z" />
    <glyph glyph-name="quoteleft" unicode="&#x2018;" horiz-adv-x="278" 
d="M162 940h40l-84 -306h-54z" />
    <glyph glyph-name="ffl" unicode="&#xfb04;" horiz-adv-x="758" 
d="M482 922c-49 0 -53 -58 -53 -104v-310h101v-48h-101v-460h-53v460h-195v-460h-53v460h-98v48h98v310c0 41 1 84 24 117c18 26 50 35 82 35h3c30 0 61 -8 79 -30l-42 -35c-9 11 -23 17 -37 17h-3c-49 0 -53 -58 -53 -104v-310h195v310c0 41 1 84 24 117c18 26 50 35 82 35
h3c30 0 61 -8 79 -30l-42 -35c-9 11 -23 17 -37 17h-3zM639 0v950h53v-950h-53z" />
    <glyph glyph-name="perthousandzero" horiz-adv-x="376" 
d="M191 399h-6c-31 0 -62 -13 -77 -40c-21 -37 -22 -81 -22 -124v-22c0 -43 1 -88 22 -125c15 -27 46 -40 77 -40h6c31 0 62 13 77 40c23 40 23 90 23 136s0 95 -23 135c-15 27 -46 40 -77 40zM191 447c46 0 92 -14 117 -51c34 -50 35 -112 35 -172s-1 -123 -35 -173
c-25 -37 -71 -51 -117 -51h-6c-46 0 -92 14 -117 51c-34 50 -35 113 -35 173s1 122 35 172c25 37 71 51 117 51h6z" />
    <glyph glyph-name="lcaron" unicode="&#x13e;" horiz-adv-x="184" 
d="M65 0v950h53v-950h-53zM251 950h54l-97 -306h-40z" />
    <glyph glyph-name="three" unicode="3" 
d="M196 494h51c45 0 92 12 118 48c33 46 35 105 35 161s-2 115 -35 161c-26 36 -73 48 -118 48h-9c-45 0 -91 -12 -117 -48c-18 -25 -28 -55 -32 -86l-53 7c5 42 17 82 44 116c37 46 99 59 158 59h9c59 0 121 -13 158 -59c44 -55 47 -128 47 -198c0 -58 -6 -120 -47 -161
c-40 -41 -101 -48 -158 -48c59 0 121 -13 158 -59c44 -55 47 -128 47 -198s-3 -143 -47 -198c-37 -46 -99 -59 -158 -59h-9c-59 0 -121 13 -158 59c-27 34 -39 74 -44 116l53 7c4 -31 14 -61 32 -86c26 -36 72 -48 117 -48h9c45 0 92 12 118 48c33 46 35 105 35 161
s-2 115 -35 161c-26 36 -73 48 -118 48h-51v48z" />
    <glyph glyph-name="Ucircumflex" unicode="&#xdb;" horiz-adv-x="647" 
d="M574 940v-666c0 -80 -5 -164 -56 -226c-45 -54 -118 -68 -188 -68h-12c-70 0 -144 14 -189 68c-51 62 -56 146 -56 226v666h53v-666c0 -67 3 -136 44 -189c34 -44 92 -57 148 -57h12c56 0 113 13 147 57c41 53 45 122 45 189v666h52zM324 1151l-93 -141h-46l108 188h62
l107 -188h-46z" />
    <glyph glyph-name="ohungarumlaut" unicode="&#x151;" horiz-adv-x="545" 
d="M152 586l91 188h59l-106 -188h-44zM406 774h60l-106 -188h-44zM278 480h-11c-50 0 -101 -12 -131 -52c-37 -49 -40 -113 -40 -174s3 -125 40 -174c30 -40 81 -52 131 -52h11c50 0 101 12 131 52c37 49 40 113 40 174s-3 125 -40 174c-30 40 -81 52 -131 52zM278 528
c65 0 131 -13 172 -63c47 -58 51 -136 51 -211s-4 -153 -51 -211c-41 -50 -107 -63 -172 -63h-11c-65 0 -131 13 -172 63c-47 58 -51 136 -51 211s4 153 51 211c41 50 107 63 172 63h11z" />
    <glyph glyph-name="bracketleft" unicode="[" horiz-adv-x="305" 
d="M98 -250v1237h174v-48h-121v-1141h121v-48h-174z" />
    <glyph glyph-name="oacute" unicode="&#xf3;" horiz-adv-x="545" 
d="M332 774h61l-114 -188h-45zM278 480h-11c-50 0 -101 -12 -131 -52c-37 -49 -40 -113 -40 -174s3 -125 40 -174c30 -40 81 -52 131 -52h11c50 0 101 12 131 52c37 49 40 113 40 174s-3 125 -40 174c-30 40 -81 52 -131 52zM278 528c65 0 131 -13 172 -63
c47 -58 51 -136 51 -211s-4 -153 -51 -211c-41 -50 -107 -63 -172 -63h-11c-65 0 -131 13 -172 63c-47 58 -51 136 -51 211s4 153 51 211c41 50 107 63 172 63h11z" />
    <glyph glyph-name="nine" unicode="9" horiz-adv-x="534" 
d="M42 163l53 7c5 -33 14 -64 34 -91c29 -39 78 -51 127 -51h11c49 0 98 12 127 51c36 48 38 111 38 171v418c0 -77 0 -158 -38 -225c-25 -45 -75 -67 -127 -67h-11c-64 0 -130 16 -168 67c-47 63 -50 146 -50 225s3 162 50 225c38 51 104 67 168 67h11
c64 0 130 -16 168 -67c47 -63 50 -146 50 -225v-418c0 -74 -4 -151 -50 -208c-39 -49 -105 -62 -168 -62h-11c-63 0 -129 13 -168 62c-28 35 -41 77 -46 121zM267 912h-11c-50 0 -99 -15 -127 -56c-37 -54 -38 -122 -38 -188s1 -134 38 -188c28 -41 77 -56 127 -56h11
c50 0 99 15 127 56c37 54 38 122 38 188s-1 134 -38 188c-28 41 -77 56 -127 56z" />
    <glyph glyph-name="backslash" unicode="\" horiz-adv-x="409" 
d="M331 -47l-309 1034h56l309 -1034h-56z" />
    <glyph glyph-name="atilde" unicode="&#xe3;" horiz-adv-x="512" 
d="M447 0h-53v146c0 -46 -3 -94 -33 -128c-27 -31 -70 -38 -111 -38h-9c-54 0 -111 3 -152 38c-36 30 -45 80 -45 128s9 98 45 128c41 35 98 38 152 38h9c41 0 84 -7 111 -38c30 -34 33 -82 33 -128v166c0 46 -3 94 -33 129c-27 31 -70 39 -111 39h-9c-41 0 -84 -8 -111 -39
c-15 -17 -23 -38 -28 -60l-53 9c6 33 18 63 40 88c38 41 96 50 152 50h9c56 0 114 -9 152 -50c40 -44 45 -106 45 -166v-312zM135 591h-42c0 36 2 73 24 101c18 23 49 30 79 30c46 0 52 -74 98 -74c18 0 37 5 47 20c14 20 15 44 15 68h42c0 -36 -2 -73 -24 -101
c-18 -23 -50 -30 -80 -30c-46 0 -52 75 -98 75c-18 0 -37 -6 -47 -21c-14 -20 -14 -44 -14 -68zM250 264h-9c-39 0 -80 -2 -111 -27c-26 -21 -34 -57 -34 -91s8 -70 34 -91c31 -25 72 -27 111 -27h9c39 0 80 2 111 27c26 21 33 57 33 91s-7 70 -33 91c-31 25 -72 27 -111 27
z" />
    <glyph glyph-name="Aacute" unicode="&#xc1;" horiz-adv-x="605" 
d="M11 0l263 940h57l263 -940h-55l-38 136h-402l-38 -136h-50zM362 1198h61l-114 -188h-45zM488 184l-188 670l-187 -670h375z" />
    <glyph glyph-name="ccedilla" unicode="&#xe7;" horiz-adv-x="526" 
d="M498 175c-5 -48 -17 -95 -48 -132c-39 -48 -103 -62 -166 -63l-7 -36c35 0 72 -2 99 -24c23 -19 30 -50 30 -80s-7 -61 -30 -80c-28 -22 -65 -24 -101 -24h-5c-36 0 -73 2 -101 24c-22 17 -29 44 -30 72l43 2c1 -17 6 -35 20 -45c19 -14 44 -15 68 -15h5c24 0 49 1 68 15
c15 11 21 32 21 51s-6 40 -21 51c-19 14 -44 15 -68 15h-44l14 75c-57 3 -114 18 -150 62c-47 58 -51 136 -51 211s4 153 51 211c41 50 107 63 172 63h11c65 0 131 -13 172 -63c31 -37 43 -84 48 -132l-53 -5c-4 36 -14 71 -36 100c-30 40 -81 52 -131 52h-11
c-50 0 -101 -12 -131 -52c-37 -49 -40 -113 -40 -174s3 -125 40 -174c30 -40 81 -52 131 -52h11c50 0 101 12 131 52c22 29 32 64 36 100z" />
    <glyph glyph-name="Lslash" unicode="&#x141;" horiz-adv-x="512" 
d="M480 0h-393v357l-65 -56v56l65 56v527h53v-481l209 180v-56l-209 -180v-355h340v-48z" />
    <glyph glyph-name="Sacute" unicode="&#x15a;" horiz-adv-x="567" 
d="M46 176l53 5c4 -38 15 -74 39 -103c33 -40 85 -50 137 -50h11c52 0 108 7 141 47c38 47 38 110 38 170c0 78 -35 153 -103 189l-168 29c-87 46 -134 141 -134 240c0 71 1 147 47 202c40 48 106 55 169 55h10c62 0 126 -12 165 -59c29 -35 42 -79 47 -125l-52 -14
c-3 37 -12 73 -35 102c-29 37 -78 48 -125 48h-10c-48 0 -99 -8 -128 -45c-35 -45 -35 -106 -35 -164c0 -79 36 -155 106 -192l168 -29c86 -45 131 -139 131 -237c0 -74 -1 -152 -50 -208c-44 -50 -115 -57 -182 -57h-11c-66 0 -135 11 -178 61c-33 38 -46 85 -51 135z
M340 1198h61l-114 -188h-45z" />
    <glyph glyph-name="visiblespace" unicode="&#x2420;" horiz-adv-x="436" 
d="M22 0h53v-76h286v76h53v-124h-392v124z" />
    <glyph glyph-name="aring" unicode="&#xe5;" horiz-adv-x="512" 
d="M447 0h-53v146c0 -46 -3 -94 -33 -128c-27 -31 -70 -38 -111 -38h-9c-54 0 -111 3 -152 38c-36 30 -45 80 -45 128s9 98 45 128c41 35 98 38 152 38h9c41 0 84 -7 111 -38c30 -34 33 -82 33 -128v166c0 46 -3 94 -33 129c-27 31 -70 39 -111 39h-9c-41 0 -84 -8 -111 -39
c-15 -17 -23 -38 -28 -60l-53 9c6 33 18 63 40 88c38 41 96 50 152 50h9c56 0 114 -9 152 -50c40 -44 45 -106 45 -166v-312zM250 264h-9c-39 0 -80 -2 -111 -27c-26 -21 -34 -57 -34 -91s8 -70 34 -91c31 -25 72 -27 111 -27h9c39 0 80 2 111 27c26 21 33 57 33 91
s-7 70 -33 91c-31 25 -72 27 -111 27zM247 758h-3c-16 0 -33 -5 -42 -18c-12 -17 -13 -39 -13 -60s1 -43 13 -60c9 -13 26 -18 42 -18h3c16 0 33 5 42 18c12 17 12 39 12 60s0 43 -12 60c-9 13 -26 18 -42 18zM247 790c26 0 53 -5 69 -25c19 -23 20 -55 20 -85
s-1 -62 -20 -85c-16 -20 -43 -25 -69 -25h-3c-26 0 -53 5 -69 25c-19 23 -21 55 -21 85s2 62 21 85c16 20 43 25 69 25h3z" />
    <glyph glyph-name="m" unicode="m" horiz-adv-x="790" 
d="M65 0v508h53v-172c0 52 2 106 34 147c26 34 71 45 114 45h8c44 0 89 -11 116 -45c32 -41 34 -95 34 -147c0 52 2 106 34 147c26 34 71 45 114 45h8c44 0 89 -11 116 -45c32 -41 34 -95 34 -147v-336h-52v336c0 39 -1 78 -23 110c-16 24 -46 34 -75 34h-8
c-41 0 -84 -5 -114 -34c-29 -28 -34 -70 -34 -110v-336h-53v336c0 39 0 78 -22 110c-16 24 -46 34 -75 34h-8c-41 0 -84 -5 -114 -34c-29 -28 -34 -70 -34 -110v-336h-53z" />
    <glyph glyph-name="ograve" unicode="&#xf2;" horiz-adv-x="545" 
d="M152 774h61l98 -188h-45zM278 480h-11c-50 0 -101 -12 -131 -52c-37 -49 -40 -113 -40 -174s3 -125 40 -174c30 -40 81 -52 131 -52h11c50 0 101 12 131 52c37 49 40 113 40 174s-3 125 -40 174c-30 40 -81 52 -131 52zM278 528c65 0 131 -13 172 -63
c47 -58 51 -136 51 -211s-4 -153 -51 -211c-41 -50 -107 -63 -172 -63h-11c-65 0 -131 13 -172 63c-47 58 -51 136 -51 211s4 153 51 211c41 50 107 63 172 63h11z" />
    <glyph glyph-name="Cacute" unicode="&#x106;" horiz-adv-x="736" 
d="M709 315c-7 -79 -26 -155 -70 -222c-53 -81 -151 -113 -249 -113h-17c-98 0 -196 32 -249 113c-72 110 -75 246 -75 377s3 267 75 377c53 81 151 113 249 113h17c98 0 196 -32 249 -113c44 -67 63 -143 70 -222l-53 -5c-7 67 -21 132 -57 190c-43 70 -126 102 -209 102
h-17c-83 0 -166 -32 -209 -102c-62 -101 -62 -222 -62 -340s0 -239 62 -340c43 -70 126 -102 209 -102h17c83 0 166 32 209 102c36 58 50 123 57 190zM441 1198h61l-114 -188h-45z" />
    <glyph glyph-name="six" unicode="6" horiz-adv-x="534" 
d="M492 777l-53 -7c-5 33 -14 64 -34 91c-29 39 -78 51 -127 51h-11c-49 0 -98 -12 -127 -51c-36 -48 -38 -111 -38 -171v-418c0 77 0 158 38 225c25 45 75 67 127 67h11c64 0 130 -16 168 -67c47 -63 50 -146 50 -225s-3 -162 -50 -225c-38 -51 -104 -67 -168 -67h-11
c-64 0 -130 16 -168 67c-47 63 -50 146 -50 225v418c0 74 4 151 50 208c39 49 105 62 168 62h11c63 0 129 -13 168 -62c28 -35 41 -77 46 -121zM267 28h11c50 0 99 15 127 56c37 54 38 122 38 188s-1 134 -38 188c-28 41 -77 56 -127 56h-11c-50 0 -99 -15 -127 -56
c-37 -54 -38 -122 -38 -188s1 -134 38 -188c28 -41 77 -56 127 -56z" />
    <glyph glyph-name="egrave" unicode="&#xe8;" horiz-adv-x="540" 
d="M499 155c-5 -46 -17 -89 -49 -122c-44 -45 -109 -53 -172 -53h-11c-65 0 -131 13 -172 63c-47 58 -51 136 -51 211s4 153 51 211c41 50 107 63 172 63h11c65 0 131 -13 172 -63c47 -58 51 -136 51 -211v-24h-404c1 -54 7 -108 39 -150c30 -40 81 -52 131 -52h11
c48 0 98 7 131 42c23 25 33 56 37 90zM152 774h61l98 -188h-45zM448 278c-1 54 -7 108 -39 150c-30 40 -81 52 -131 52h-11c-50 0 -101 -12 -131 -52c-32 -42 -38 -96 -39 -150h351z" />
    <glyph glyph-name="cwm" horiz-adv-x="0" 
d="M72 -0c0 -12 -10 -23 -24 -23c-12 0 -23 9 -23 23v940c0 12 9 23 23 23c12 0 24 -9 24 -23v-940z" />
    <glyph glyph-name="hyphen" unicode="-" horiz-adv-x="316" 
d="M44 230v48h228v-48h-228z" />
    <glyph glyph-name="scaron" unicode="&#x161;" horiz-adv-x="436" 
d="M35 99l52 7c3 -21 12 -41 28 -54c27 -22 64 -24 99 -24h8c36 0 73 0 101 23c24 19 27 51 27 82c0 42 -26 80 -66 90l-123 16c-65 16 -111 74 -111 140c0 43 3 88 35 117c34 31 84 32 130 32h6c46 0 94 -5 128 -35c23 -20 32 -49 36 -79l-53 -6c-3 19 -10 35 -24 48
c-23 21 -56 24 -87 24h-6c-31 0 -66 -1 -89 -22c-21 -19 -24 -50 -24 -79c0 -43 29 -82 71 -92l123 -16c63 -16 107 -73 107 -138c0 -44 -5 -92 -39 -120c-39 -33 -92 -33 -142 -33h-8c-50 0 -102 3 -140 35c-25 21 -35 52 -39 84zM310 774h46l-107 -188h-62l-107 188h46
l92 -141z" />
    <glyph glyph-name="Zacute" unicode="&#x179;" horiz-adv-x="556" 
d="M27 892v48h502v-57l-448 -835h448v-48h-502v57l448 835h-448zM338 1198h60l-114 -188h-45z" />
    <glyph glyph-name="igrave" unicode="&#xec;" horiz-adv-x="207" 
d="M77 0v508h53v-508h-53zM-17 774h61l98 -188h-45z" />
    <glyph glyph-name="acircumflex" unicode="&#xe2;" horiz-adv-x="512" 
d="M447 0h-53v146c0 -46 -3 -94 -33 -128c-27 -31 -70 -38 -111 -38h-9c-54 0 -111 3 -152 38c-36 30 -45 80 -45 128s9 98 45 128c41 35 98 38 152 38h9c41 0 84 -7 111 -38c30 -34 33 -82 33 -128v166c0 46 -3 94 -33 129c-27 31 -70 39 -111 39h-9c-41 0 -84 -8 -111 -39
c-15 -17 -23 -38 -28 -60l-53 9c6 33 18 63 40 88c38 41 96 50 152 50h9c56 0 114 -9 152 -50c40 -44 45 -106 45 -166v-312zM250 264h-9c-39 0 -80 -2 -111 -27c-26 -21 -34 -57 -34 -91s8 -70 34 -91c31 -25 72 -27 111 -27h9c39 0 80 2 111 27c26 21 33 57 33 91
s-7 70 -33 91c-31 25 -72 27 -111 27zM245 727l-92 -141h-46l107 188h62l107 -188h-45z" />
    <glyph glyph-name="M" unicode="M" horiz-adv-x="845" 
d="M76 0v940h57l289 -868l289 868h57v-940h-52v795l-265 -795h-57l-265 795v-795h-53z" />
    <glyph glyph-name="N" unicode="N" horiz-adv-x="681" 
d="M76 0v940h57l419 -835v835h53v-940h-57l-419 835v-835h-53z" />
    <glyph glyph-name="at" unicode="@" horiz-adv-x="730" 
d="M350 682c91 0 95 -126 95 -212c0 43 0 88 -22 126c-15 25 -44 38 -73 38h-5c-29 0 -58 -13 -73 -38c-22 -38 -22 -83 -22 -126s0 -88 22 -126c15 -25 44 -38 73 -38h5c29 0 58 13 73 38c22 38 22 83 22 126v212h53v-376h4c41 0 83 7 110 38c30 34 33 81 33 126
c0 118 -1 239 -63 340c-43 70 -125 102 -208 102h-17c-83 0 -166 -32 -209 -102c-62 -101 -62 -222 -62 -340s0 -239 62 -340c43 -70 126 -102 209 -102h17c74 0 151 4 208 51c22 18 37 41 47 67l51 -18c-11 -33 -29 -63 -57 -86c-68 -57 -160 -62 -249 -62h-17
c-98 0 -197 32 -250 113c-72 110 -74 246 -74 377s2 267 74 377c53 81 152 113 250 113h17c98 0 196 -32 249 -113c72 -110 75 -246 75 -377c0 -59 -5 -120 -45 -163c-37 -40 -96 -49 -151 -49h-57v212c0 -86 -4 -212 -95 -212h-5c-44 0 -89 13 -114 49
c-33 47 -34 106 -34 163s1 116 34 163c25 36 70 49 114 49h5z" />
    <glyph glyph-name="idieresis" unicode="&#xef;" horiz-adv-x="207" 
d="M77 0v508h53v-508h-53zM5 727c12 0 26 -2 34 -10s9 -21 9 -33s-1 -25 -9 -33s-22 -10 -34 -10s-25 2 -33 10s-10 21 -10 33s2 25 10 33s21 10 33 10zM202 727c12 0 25 -2 33 -10s10 -21 10 -33s-2 -25 -10 -33s-21 -10 -33 -10s-25 2 -33 10s-10 21 -10 33s2 25 10 33
s21 10 33 10z" />
    <glyph glyph-name="colon" unicode=":" horiz-adv-x="227" 
d="M114 83c12 0 24 -1 32 -9s9 -20 9 -32s-1 -24 -9 -32s-20 -10 -32 -10s-24 2 -32 10s-10 20 -10 32s2 24 10 32s20 9 32 9zM114 508c12 0 24 -2 32 -10s9 -20 9 -32s-1 -24 -9 -32s-20 -10 -32 -10s-24 2 -32 10s-10 20 -10 32s2 24 10 32s20 10 32 10z" />
    <glyph glyph-name="l" unicode="l" horiz-adv-x="184" 
d="M65 0v950h53v-950h-53z" />
    <glyph glyph-name="Iacute" unicode="&#xcd;" horiz-adv-x="227" 
d="M87 0v940h53v-940h-53zM173 1198h61l-114 -188h-45z" />
    <glyph glyph-name="two" unicode="2" 
d="M44 0v48c64 86 129 172 193 258c91 126 173 264 173 420c0 51 -3 104 -35 143c-28 34 -73 43 -117 43h-9c-44 0 -90 -9 -118 -43c-18 -22 -27 -49 -31 -77l-53 7c5 40 18 77 44 107c38 44 99 54 158 54h9c59 0 120 -10 158 -54c42 -48 47 -116 47 -180
c0 -173 -91 -328 -193 -468c-52 -70 -105 -140 -157 -210h350v-48h-419z" />
    <glyph glyph-name="zero" unicode="0" horiz-adv-x="567" 
d="M289 912h-11c-58 0 -114 -31 -134 -85c-30 -80 -31 -218 -31 -335v-44c0 -117 1 -255 31 -335c20 -54 76 -85 134 -85h11c58 0 113 31 133 85c32 85 32 236 32 357s0 272 -32 357c-20 54 -75 85 -133 85zM289 960c73 0 147 -28 176 -94c42 -94 42 -262 42 -396
s0 -302 -42 -396c-29 -66 -103 -94 -176 -94h-11c-73 0 -147 28 -176 94c-42 94 -42 262 -42 396s0 302 42 396c29 66 103 94 176 94h11z" />
    <glyph glyph-name="g" unicode="g" horiz-adv-x="556" 
d="M490 508v-568c0 -59 -8 -121 -50 -162c-44 -42 -107 -48 -168 -48h-10c-61 0 -124 6 -168 48c-24 23 -36 52 -43 84l52 11c5 -22 15 -42 31 -58c33 -32 82 -37 128 -37h10c46 0 95 5 128 37c32 32 38 80 38 125v324c0 -70 -1 -143 -38 -203c-27 -42 -78 -61 -128 -61h-10
c-63 0 -128 13 -168 61c-46 56 -50 131 -50 203s4 147 50 203c40 48 105 61 168 61h10c50 0 101 -19 128 -61c37 -60 38 -133 38 -203v244h52zM272 480h-10c-48 0 -99 -12 -128 -50c-36 -46 -38 -108 -38 -166s2 -120 38 -166c29 -38 80 -50 128 -50h10c48 0 99 12 128 50
c36 46 38 108 38 166s-2 120 -38 166c-29 38 -80 50 -128 50z" />
    <glyph glyph-name="Tcedilla" unicode="&#x162;" horiz-adv-x="501" 
d="M2 892v48h497v-48h-222v-892h-11l-10 -56c35 0 71 -2 98 -24c23 -19 30 -50 30 -80s-7 -61 -30 -80c-28 -22 -65 -24 -101 -24h-5c-36 0 -73 2 -101 24c-22 17 -29 44 -30 72l43 2c1 -17 6 -35 20 -45c19 -14 44 -15 68 -15h5c24 0 50 1 69 15c15 11 20 32 20 51
s-5 40 -20 51c-19 14 -45 15 -69 15h-44l18 94h-3v892h-222z" />
    <glyph glyph-name="Tcaron" unicode="&#x164;" horiz-adv-x="501" 
d="M2 892v48h497v-48h-222v-892h-53v892h-222zM343 1198h46l-107 -188h-62l-108 188h46l93 -140z" />
    <glyph glyph-name="hungarumlaut" unicode="&#x2dd;" horiz-adv-x="229" 
d="M-6 752l91 188h59l-106 -188h-44zM248 940h60l-106 -188h-44z" />
    <glyph glyph-name="Lacute" unicode="&#x139;" horiz-adv-x="501" 
d="M76 0v940h53v-892h340v-48h-393zM162 1198h61l-114 -188h-45z" />
    <glyph glyph-name="quotesinglbase" unicode="&#x201a;" horiz-adv-x="278" 
d="M155 118h54l-98 -306h-40z" />
    <glyph glyph-name="grave" unicode="`" horiz-adv-x="218" 
d="M27 940h61l98 -188h-45z" />
    <glyph glyph-name="otilde" unicode="&#xf5;" horiz-adv-x="545" 
d="M162 591h-42c0 36 2 73 24 101c18 23 49 30 79 30c46 0 53 -74 99 -74c18 0 37 5 47 20c14 20 14 44 14 68h42c0 -36 -2 -73 -24 -101c-18 -23 -49 -30 -79 -30c-46 0 -53 75 -99 75c-18 0 -37 -6 -47 -21c-14 -20 -14 -44 -14 -68zM278 480h-11c-50 0 -101 -12 -131 -52
c-37 -49 -40 -113 -40 -174s3 -125 40 -174c30 -40 81 -52 131 -52h11c50 0 101 12 131 52c37 49 40 113 40 174s-3 125 -40 174c-30 40 -81 52 -131 52zM278 528c65 0 131 -13 172 -63c47 -58 51 -136 51 -211s-4 -153 -51 -211c-41 -50 -107 -63 -172 -63h-11
c-65 0 -131 13 -172 63c-47 58 -51 136 -51 211s4 153 51 211c41 50 107 63 172 63h11z" />
    <glyph glyph-name="uhungarumlaut" unicode="&#x171;" 
d="M452 508v-508h-52v172c0 -52 -2 -106 -32 -148c-24 -33 -67 -44 -108 -44h-8c-54 0 -110 6 -148 44s-44 94 -44 148v336h53v-336c0 -40 4 -82 32 -111c27 -28 68 -33 107 -33h8c39 0 81 5 108 33c28 29 32 71 32 111v336h52zM136 586l90 188h60l-106 -188h-44zM390 774
h59l-105 -188h-45z" />
    <glyph glyph-name="dcroat" unicode="&#x111;" horiz-adv-x="572" 
d="M490 0h-52v254c0 -73 0 -149 -38 -211c-26 -43 -77 -63 -128 -63h-10c-63 0 -129 14 -168 63c-46 58 -50 136 -50 211s4 153 50 211c39 49 105 63 168 63h10c51 0 102 -20 128 -63c38 -62 38 -138 38 -211v482h-171v48h171v166h52v-166h71v-48h-71v-736zM272 480h-10
c-49 0 -99 -13 -128 -52c-36 -49 -38 -113 -38 -174s2 -125 38 -174c29 -39 79 -52 128 -52h10c49 0 99 13 128 52c36 49 38 113 38 174s-2 125 -38 174c-29 39 -79 52 -128 52z" />
    <glyph glyph-name="K" unicode="K" horiz-adv-x="578" 
d="M76 940h53v-705c60 110 121 219 181 329l208 376h55l-237 -430l237 -510h-59l-210 452l-175 -317v-135h-53v940z" />
    <glyph glyph-name="zdotaccent" unicode="&#x17c;" horiz-adv-x="403" 
d="M27 460v48h349v-57l-292 -403h292v-48h-349v57l292 403h-292zM202 727c12 0 25 -2 33 -10s10 -21 10 -33s-2 -25 -10 -33s-21 -10 -33 -10s-25 2 -33 10s-10 21 -10 33s2 25 10 33s21 10 33 10z" />
    <glyph glyph-name="period" unicode="." horiz-adv-x="227" 
d="M114 83c12 0 24 -1 32 -9s9 -20 9 -32s-1 -24 -9 -32s-20 -10 -32 -10s-24 2 -32 10s-10 20 -10 32s2 24 10 32s20 9 32 9z" />
    <glyph glyph-name="k" unicode="k" horiz-adv-x="474" 
d="M71 950h53v-728l273 286h66l-200 -209l200 -299h-68l-172 257l-99 -105v-152h-53v950z" />
    <glyph glyph-name="W" unicode="W" horiz-adv-x="850" 
d="M11 940h55l229 -850l105 390l-124 460h55l96 -358l97 358h50l-122 -452l108 -398l229 850h50l-253 -940h-57l-104 386l-104 -386h-57z" />
    <glyph glyph-name="X" unicode="X" horiz-adv-x="540" 
d="M17 940h58l196 -400l196 400h55l-224 -456l236 -484h-58l-207 425l-209 -425h-55l237 481z" />
    <glyph glyph-name="ogonek" unicode="&#x2db;" horiz-adv-x="218" 
d="M144 38l13 -38l-75 -85c-22 -26 -64 -39 -64 -75c0 -19 5 -40 20 -51c19 -14 44 -15 68 -15h6c24 0 49 1 68 15c9 7 14 16 17 27l42 -9c-4 -18 -12 -35 -27 -47c-28 -22 -64 -24 -100 -24h-6c-36 0 -72 2 -100 24c-23 19 -30 50 -30 80c0 53 60 75 93 114z" />
    <glyph glyph-name="agrave" unicode="&#xe0;" horiz-adv-x="512" 
d="M447 0h-53v146c0 -46 -3 -94 -33 -128c-27 -31 -70 -38 -111 -38h-9c-54 0 -111 3 -152 38c-36 30 -45 80 -45 128s9 98 45 128c41 35 98 38 152 38h9c41 0 84 -7 111 -38c30 -34 33 -82 33 -128v166c0 46 -3 94 -33 129c-27 31 -70 39 -111 39h-9c-41 0 -84 -8 -111 -39
c-15 -17 -23 -38 -28 -60l-53 9c6 33 18 63 40 88c38 41 96 50 152 50h9c56 0 114 -9 152 -50c40 -44 45 -106 45 -166v-312zM125 774h61l98 -188h-45zM250 264h-9c-39 0 -80 -2 -111 -27c-26 -21 -34 -57 -34 -91s8 -70 34 -91c31 -25 72 -27 111 -27h9c39 0 80 2 111 27
c26 21 33 57 33 91s-7 70 -33 91c-31 25 -72 27 -111 27z" />
    <glyph glyph-name="aogonek" unicode="&#x105;" horiz-adv-x="512" 
d="M404 -226c38 0 77 8 86 42l42 -9c-4 -18 -12 -35 -27 -47c-28 -22 -65 -24 -101 -24h-5c-36 0 -73 2 -101 24c-23 19 -30 50 -30 80c0 53 61 75 94 114l41 46h-9v146c0 -46 -3 -94 -33 -128c-27 -31 -70 -38 -111 -38h-9c-54 0 -111 3 -152 38c-36 30 -45 80 -45 128
s9 98 45 128c41 35 98 38 152 38h9c41 0 84 -7 111 -38c30 -34 33 -82 33 -128v166c0 46 -3 94 -33 129c-27 31 -70 39 -111 39h-9c-41 0 -84 -8 -111 -39c-15 -17 -23 -38 -28 -60l-53 9c6 33 18 63 40 88c38 41 96 50 152 50h9c56 0 114 -9 152 -50
c40 -44 45 -106 45 -166v-304l2 -8l-75 -85c-22 -26 -63 -39 -63 -75c0 -19 5 -40 20 -51c19 -14 44 -15 68 -15h5zM250 264h-9c-39 0 -80 -2 -111 -27c-26 -21 -34 -57 -34 -91s8 -70 34 -91c31 -25 72 -27 111 -27h9c39 0 80 2 111 27c26 21 33 57 33 91s-7 70 -33 91
c-31 25 -72 27 -111 27z" />
    <glyph glyph-name="quotedbl" unicode="&#x22;" horiz-adv-x="322" 
d="M33 940h53v-306h-53v306zM289 940v-306h-53v306h53z" />
    <glyph glyph-name="t" unicode="t" horiz-adv-x="294" 
d="M8 460v48h113v442h53v-442h112v-48h-112v-460h-53v460h-113z" />
    <glyph glyph-name="question" unicode="?" horiz-adv-x="480" 
d="M202 224v270h31c42 0 84 14 107 48c31 47 32 105 32 161s-1 114 -32 161c-23 34 -65 48 -107 48h-8c-42 0 -85 -14 -108 -48c-17 -26 -24 -55 -28 -85l-53 6c5 42 16 82 41 116c33 45 92 59 148 59h8c56 0 115 -14 148 -59c42 -56 44 -128 44 -198s-2 -142 -44 -198
c-29 -39 -77 -55 -126 -58v-223h-53zM229 83c12 0 24 -1 32 -9s10 -20 10 -32s-2 -24 -10 -32s-20 -10 -32 -10s-24 2 -32 10s-10 20 -10 32s2 24 10 32s20 9 32 9z" />
    <glyph glyph-name="Adieresis" unicode="&#xc4;" horiz-adv-x="605" 
d="M11 0l263 940h57l263 -940h-55l-38 136h-402l-38 -136h-50zM204 1151c12 0 25 -1 33 -9s10 -22 10 -34s-2 -25 -10 -33s-21 -9 -33 -9s-25 1 -33 9s-10 21 -10 33s2 26 10 34s21 9 33 9zM401 1151c12 0 25 -1 33 -9s10 -22 10 -34s-2 -25 -10 -33s-21 -9 -33 -9
s-26 1 -34 9s-9 21 -9 33s1 26 9 34s22 9 34 9zM488 184l-188 670l-187 -670h375z" />
    <glyph glyph-name="five" unicode="5" horiz-adv-x="523" 
d="M59 940h394v-48h-341v-419c19 65 79 115 153 115h9c62 0 124 -19 158 -70c46 -68 48 -152 48 -234s-3 -167 -51 -234c-37 -52 -103 -70 -168 -70h-10c-65 0 -131 18 -168 70c-24 33 -36 70 -43 109l53 9c5 -29 15 -56 31 -81c27 -42 77 -59 127 -59h10
c50 0 101 17 128 59c37 58 38 129 38 197s0 138 -35 197c-24 40 -71 59 -118 59h-9c-84 0 -153 -68 -153 -152v-2h-53v554z" />
    <glyph glyph-name="Aring" unicode="&#xc5;" horiz-adv-x="605" 
d="M11 0l263 940h57l263 -940h-55l-38 136h-402l-38 -136h-50zM488 184l-188 670l-187 -670h375zM304 1182h-3c-16 0 -33 -4 -42 -17c-12 -17 -13 -40 -13 -61s1 -43 13 -60c9 -13 26 -18 42 -18h3c16 0 33 5 42 18c12 17 12 39 12 60s0 44 -12 61c-9 13 -26 17 -42 17z
M304 1214c26 0 53 -5 69 -25c19 -23 21 -55 21 -85s-2 -61 -21 -84c-16 -20 -43 -26 -69 -26h-3c-26 0 -53 6 -69 26c-19 23 -21 54 -21 84s2 62 21 85c16 20 43 25 69 25h3z" />
    <glyph glyph-name="z" unicode="z" horiz-adv-x="403" 
d="M27 460v48h349v-57l-292 -403h292v-48h-349v57l292 403h-292z" />
    <glyph glyph-name="Ccedilla" unicode="&#xc7;" horiz-adv-x="736" 
d="M709 315c-7 -79 -26 -155 -70 -222c-53 -80 -150 -112 -246 -113l-7 -36c35 0 72 -2 99 -24c23 -19 30 -50 30 -80s-7 -61 -30 -80c-28 -22 -65 -24 -101 -24h-5c-36 0 -73 2 -101 24c-22 17 -29 44 -30 72l43 2c1 -17 6 -35 20 -45c19 -14 44 -15 68 -15h5
c24 0 49 1 68 15c15 11 21 32 21 51s-6 40 -21 51c-19 14 -44 15 -68 15h-44l14 74c-91 4 -180 38 -230 113c-72 110 -75 246 -75 377s3 267 75 377c53 81 151 113 249 113h17c98 0 196 -32 249 -113c44 -67 63 -143 70 -222l-53 -5c-7 67 -21 132 -57 190
c-43 70 -126 102 -209 102h-17c-83 0 -166 -32 -209 -102c-62 -101 -62 -222 -62 -340s0 -239 62 -340c43 -70 126 -102 209 -102h17c83 0 166 32 209 102c36 58 50 123 57 190z" />
    <glyph glyph-name="Idotaccent" unicode="&#x130;" horiz-adv-x="227" 
d="M87 0v940h53v-940h-53zM114 1151c12 0 25 -1 33 -9s10 -22 10 -34s-2 -25 -10 -33s-21 -9 -33 -9s-26 1 -34 9s-9 21 -9 33s1 26 9 34s22 9 34 9z" />
    <glyph glyph-name="sterling" unicode="&#xa3;" horiz-adv-x="523" 
d="M41 211v48h96v315c0 101 0 208 39 297c23 53 73 89 130 89h7c57 0 108 -36 131 -89c22 -51 32 -107 36 -165l-53 -4c-3 46 -10 91 -24 132c-14 42 -47 78 -90 78h-7c-43 0 -75 -36 -89 -78c-27 -78 -27 -172 -27 -260v-315h219v-48h-219v-69c0 -29 -10 -57 -34 -72
c-34 -21 -75 -22 -115 -22h442v-48h-442v48c27 0 55 3 74 22c19 18 22 46 22 72v69h-96z" />
    <glyph glyph-name="eight" unicode="8" horiz-adv-x="545" 
d="M267 28h11c49 0 98 12 127 51c36 48 38 110 38 170s-2 122 -38 170c-29 39 -78 51 -127 51h-11c-49 0 -98 -12 -127 -51c-36 -48 -38 -110 -38 -170s2 -122 38 -170c29 -39 78 -51 127 -51zM267 -20c-63 0 -129 13 -168 62c-46 57 -50 134 -50 207s4 150 50 207
c39 49 105 62 168 62c-51 0 -104 7 -139 45c-37 40 -42 97 -42 152c0 66 3 136 42 189c32 43 86 56 139 56h11c53 0 107 -13 139 -56c39 -53 42 -123 42 -189c0 -55 -5 -112 -42 -152c-35 -38 -88 -45 -139 -45c63 0 129 -13 168 -62c46 -57 50 -134 50 -207
s-4 -150 -50 -207c-40 -49 -105 -62 -168 -62h-11zM278 518c39 0 78 13 99 45c29 44 29 99 29 152s0 108 -29 152c-21 32 -60 45 -99 45h-11c-39 0 -78 -13 -99 -45c-29 -44 -29 -99 -29 -152s0 -108 29 -152c21 -32 60 -45 99 -45h11z" />
    <glyph glyph-name="Ntilde" unicode="&#xd1;" horiz-adv-x="681" 
d="M76 0v940h57l419 -835v835h53v-940h-57l-419 835v-835h-53zM230 1015h-42c0 36 2 74 24 102c18 23 50 30 80 30c46 0 52 -75 98 -75c18 0 37 5 47 20c14 20 14 45 14 69h42c0 -36 -2 -73 -24 -101c-18 -23 -49 -31 -79 -31c-46 0 -52 75 -98 75c-18 0 -38 -5 -48 -20
c-14 -20 -14 -45 -14 -69z" />
    <glyph glyph-name="Z" unicode="Z" horiz-adv-x="556" 
d="M27 892v48h502v-57l-448 -835h448v-48h-502v57l448 835h-448z" />
    <glyph glyph-name="T" unicode="T" horiz-adv-x="501" 
d="M2 892v48h497v-48h-222v-892h-53v892h-222z" />
    <glyph glyph-name="parenleft" unicode="(" horiz-adv-x="300" 
d="M247 -264c-51 33 -91 89 -118 150c-68 154 -80 326 -80 494s12 339 80 493c27 61 67 117 118 150l26 -39c-48 -30 -82 -87 -105 -146c-57 -145 -66 -302 -66 -458s9 -314 66 -459c23 -59 57 -116 105 -146z" />
    <glyph glyph-name="Eacute" unicode="&#xc9;" horiz-adv-x="507" 
d="M76 0v940h393v-48h-340v-633h313v-48h-313v-163h340v-48h-393zM332 1198h61l-114 -188h-45z" />
    <glyph glyph-name="zcaron" unicode="&#x17e;" horiz-adv-x="403" 
d="M27 460v48h349v-57l-292 -403h292v-48h-349v57l292 403h-292zM294 774h46l-107 -188h-62l-108 188h46l93 -141z" />
    <glyph glyph-name="IJ" unicode="&#x132;" horiz-adv-x="659" 
d="M589 940v-711c0 -67 -3 -138 -44 -192c-33 -44 -90 -57 -145 -57h-9c-55 0 -112 13 -145 57c-41 54 -44 125 -44 192h53c0 -54 2 -110 32 -155c23 -33 63 -46 104 -46h9c41 0 82 13 105 46c30 45 31 101 31 155v711h53zM87 0v940h53v-940h-53z" />
    <glyph glyph-name="guilsinglleft" unicode="&#x2039;" horiz-adv-x="300" 
d="M106 254l145 -254h-57l-145 254l145 254h57z" />
    <glyph glyph-name="quotedblbase" unicode="&#x201e;" horiz-adv-x="501" 
d="M92 -188l83 306h54l-97 -306h-40zM363 118h54l-97 -306h-40z" />
    <glyph glyph-name="abreve" unicode="&#x103;" horiz-adv-x="512" 
d="M447 0h-53v146c0 -46 -3 -94 -33 -128c-27 -31 -70 -38 -111 -38h-9c-54 0 -111 3 -152 38c-36 30 -45 80 -45 128s9 98 45 128c41 35 98 38 152 38h9c41 0 84 -7 111 -38c30 -34 33 -82 33 -128v166c0 46 -3 94 -33 129c-27 31 -70 39 -111 39h-9c-41 0 -84 -8 -111 -39
c-15 -17 -23 -38 -28 -60l-53 9c6 33 18 63 40 88c38 41 96 50 152 50h9c56 0 114 -9 152 -50c40 -44 45 -106 45 -166v-312zM398 730c0 -34 -8 -70 -35 -91c-32 -25 -73 -27 -114 -27h-7c-41 0 -83 2 -115 27c-27 21 -34 57 -34 91h42c0 -22 7 -45 25 -58
c24 -17 53 -18 82 -18h7c29 0 58 1 82 18c18 13 25 36 25 58h42zM250 264h-9c-39 0 -80 -2 -111 -27c-26 -21 -34 -57 -34 -91s8 -70 34 -91c31 -25 72 -27 111 -27h9c39 0 80 2 111 27c26 21 33 57 33 91s-7 70 -33 91c-31 25 -72 27 -111 27z" />
    <glyph glyph-name="G" unicode="G" horiz-adv-x="779" 
d="M714 0h-53v211h-10c-8 -49 -24 -97 -52 -139c-45 -67 -128 -92 -209 -92h-17c-98 0 -196 32 -249 113c-72 110 -75 246 -75 377s3 267 75 377c53 81 151 113 249 113h17c98 0 196 -32 249 -113c42 -64 61 -136 69 -212l-53 -6c-7 64 -22 126 -56 181
c-43 70 -126 102 -209 102h-17c-83 0 -166 -32 -209 -102c-62 -101 -62 -222 -62 -340s0 -239 62 -340c43 -70 126 -102 209 -102h17c79 0 161 19 209 81c23 31 38 65 47 102h-264v48h273c5 40 6 82 6 123c0 -41 0 -82 -4 -123h57v-259z" />
    <glyph glyph-name="h" unicode="h" horiz-adv-x="496" 
d="M71 0v950h53v-614c0 41 5 82 34 110c30 29 75 34 117 34h7c30 0 61 -10 78 -34c22 -32 23 -71 23 -110v-336h53v336c0 52 -2 106 -35 147c-28 34 -75 45 -119 45h-7c-44 0 -90 -11 -117 -45c-32 -41 -34 -95 -34 -147v-336h-53z" />
    <glyph glyph-name="aacute" unicode="&#xe1;" horiz-adv-x="512" 
d="M447 0h-53v146c0 -46 -3 -94 -33 -128c-27 -31 -70 -38 -111 -38h-9c-54 0 -111 3 -152 38c-36 30 -45 80 -45 128s9 98 45 128c41 35 98 38 152 38h9c41 0 84 -7 111 -38c30 -34 33 -82 33 -128v166c0 46 -3 94 -33 129c-27 31 -70 39 -111 39h-9c-41 0 -84 -8 -111 -39
c-15 -17 -23 -38 -28 -60l-53 9c6 33 18 63 40 88c38 41 96 50 152 50h9c56 0 114 -9 152 -50c40 -44 45 -106 45 -166v-312zM305 774h61l-115 -188h-45zM250 264h-9c-39 0 -80 -2 -111 -27c-26 -21 -34 -57 -34 -91s8 -70 34 -91c31 -25 72 -27 111 -27h9c39 0 80 2 111 27
c26 21 33 57 33 91s-7 70 -33 91c-31 25 -72 27 -111 27z" />
    <glyph glyph-name="eacute" unicode="&#xe9;" horiz-adv-x="540" 
d="M499 155c-5 -46 -17 -89 -49 -122c-44 -45 -109 -53 -172 -53h-11c-65 0 -131 13 -172 63c-47 58 -51 136 -51 211s4 153 51 211c41 50 107 63 172 63h11c65 0 131 -13 172 -63c47 -58 51 -136 51 -211v-24h-404c1 -54 7 -108 39 -150c30 -40 81 -52 131 -52h11
c48 0 98 7 131 42c23 25 33 56 37 90zM332 774h61l-114 -188h-45zM448 278c-1 54 -7 108 -39 150c-30 40 -81 52 -131 52h-11c-50 0 -101 -12 -131 -52c-32 -42 -38 -96 -39 -150h351z" />
    <glyph glyph-name="Scaron" unicode="&#x160;" horiz-adv-x="567" 
d="M46 176l53 5c4 -38 15 -74 39 -103c33 -40 85 -50 137 -50h11c52 0 108 7 141 47c38 47 38 110 38 170c0 78 -35 153 -103 189l-168 29c-87 46 -134 141 -134 240c0 71 1 147 47 202c40 48 106 55 169 55h10c62 0 126 -12 165 -59c29 -35 42 -79 47 -125l-52 -14
c-3 37 -12 73 -35 102c-29 37 -78 48 -125 48h-10c-48 0 -99 -8 -128 -45c-35 -45 -35 -106 -35 -164c0 -79 36 -155 106 -192l168 -29c86 -45 131 -139 131 -237c0 -74 -1 -152 -50 -208c-44 -50 -115 -57 -182 -57h-11c-66 0 -135 11 -178 61c-33 38 -46 85 -51 135z
M373 1198h46l-107 -188h-62l-108 188h46l93 -140z" />
    <glyph glyph-name="greater" unicode="&#x3e;" horiz-adv-x="534" 
d="M434 254l-390 201v58l446 -230v-58l-446 -230v58z" />
    <glyph glyph-name="oe" unicode="&#x153;" horiz-adv-x="861" 
d="M821 155c-4 -45 -15 -88 -45 -122c-38 -43 -97 -53 -155 -53h-9c-59 0 -121 16 -156 63c-8 11 -15 22 -20 34c-5 -12 -12 -23 -20 -34c-35 -47 -97 -63 -156 -63h-9c-59 0 -120 16 -155 63c-44 60 -47 137 -47 211s3 151 47 211c35 47 96 63 155 63h9
c59 0 121 -16 156 -63c8 -11 15 -22 20 -34c5 12 12 23 20 34c35 47 97 63 156 63h9c59 0 120 -16 155 -63c44 -60 47 -137 47 -211v-24h-360c1 -53 5 -106 34 -150c25 -37 70 -52 115 -52h9c43 0 88 9 115 42c21 25 29 56 32 89zM260 480h-9c-45 0 -90 -15 -115 -52
c-33 -51 -34 -114 -34 -174s1 -123 34 -174c25 -37 70 -52 115 -52h9c45 0 90 15 115 52c33 51 35 114 35 174s-2 123 -35 174c-25 37 -70 52 -115 52zM770 278c-1 53 -5 106 -34 150c-25 37 -70 52 -115 52h-9c-45 0 -90 -15 -115 -52c-29 -44 -33 -97 -34 -150h307z" />
    <glyph glyph-name="Nacute" unicode="&#x143;" horiz-adv-x="681" 
d="M76 0v940h57l419 -835v835h53v-940h-57l-419 835v-835h-53zM400 1198h61l-114 -188h-45z" />
    <glyph glyph-name="lacute" unicode="&#x13a;" horiz-adv-x="184" 
d="M65 0v950h53v-950h-53zM161 1188h61l-114 -188h-45z" />
    <glyph glyph-name="less" unicode="&#x3c;" horiz-adv-x="534" 
d="M100 254l390 -201v-58l-446 230v58l446 230v-58z" />
    <glyph glyph-name="asciicircum" unicode="^" horiz-adv-x="589" 
d="M294 869l-196 -493h-56l224 564h57l224 -564h-57z" />
    <glyph glyph-name="seven" unicode="7" 
d="M44 892v48h419v-57l-294 -883h-55l297 892h-367z" />
    <glyph glyph-name="Ocircumflex" unicode="&#xd4;" horiz-adv-x="763" 
d="M390 912h-17c-83 0 -166 -32 -209 -102c-62 -101 -62 -222 -62 -340s0 -239 62 -340c43 -70 126 -102 209 -102h17c83 0 166 32 209 102c62 101 62 222 62 340s0 239 -62 340c-43 70 -126 102 -209 102zM390 960c98 0 196 -32 249 -113c72 -110 75 -246 75 -377
s-3 -267 -75 -377c-53 -81 -151 -113 -249 -113h-17c-98 0 -196 32 -249 113c-72 110 -75 246 -75 377s3 267 75 377c53 81 151 113 249 113h17zM382 1151l-93 -141h-46l108 188h61l108 -188h-46z" />
    <glyph glyph-name="F" unicode="F" horiz-adv-x="490" 
d="M76 0v940h393v-48h-340v-633h313v-48h-313v-211h-53z" />
    <glyph glyph-name="tilde" unicode="&#x2dc;" horiz-adv-x="229" 
d="M4 757h-42c0 36 2 73 24 101c18 23 49 30 79 30c46 0 53 -75 99 -75c18 0 37 6 47 21c14 20 14 44 14 68h42c0 -36 -2 -73 -24 -101c-18 -23 -49 -30 -79 -30c-46 0 -53 75 -99 75c-18 0 -37 -6 -47 -21c-14 -20 -14 -44 -14 -68z" />
    <glyph glyph-name="iacute" unicode="&#xed;" horiz-adv-x="207" 
d="M77 0v508h53v-508h-53zM163 774h61l-114 -188h-45z" />
    <glyph glyph-name="Otilde" unicode="&#xd5;" horiz-adv-x="763" 
d="M271 1015h-42c0 36 2 74 24 102c18 23 49 30 79 30c46 0 53 -75 99 -75c18 0 37 5 47 20c14 20 14 45 14 69h42c0 -36 -2 -73 -24 -101c-18 -23 -49 -31 -79 -31c-46 0 -53 75 -99 75c-18 0 -37 -5 -47 -20c-14 -20 -14 -45 -14 -69zM390 912h-17
c-83 0 -166 -32 -209 -102c-62 -101 -62 -222 -62 -340s0 -239 62 -340c43 -70 126 -102 209 -102h17c83 0 166 32 209 102c62 101 62 222 62 340s0 239 -62 340c-43 70 -126 102 -209 102zM390 960c98 0 196 -32 249 -113c72 -110 75 -246 75 -377s-3 -267 -75 -377
c-53 -81 -151 -113 -249 -113h-17c-98 0 -196 32 -249 113c-72 110 -75 246 -75 377s3 267 75 377c53 81 151 113 249 113h17z" />
    <glyph glyph-name="parenright" unicode=")" horiz-adv-x="300" 
d="M54 -264l-26 39c48 30 81 87 104 146c57 145 66 303 66 459s-9 313 -66 458c-23 59 -56 116 -104 146l26 39c51 -33 90 -89 117 -150c68 -154 80 -325 80 -493s-12 -340 -80 -494c-27 -61 -66 -117 -117 -150z" />
    <glyph glyph-name="germandbls" unicode="&#xdf;" horiz-adv-x="540" 
d="M280 541c81 0 85 109 85 185c0 50 -1 101 -28 143c-19 30 -56 43 -92 43h-7c-36 0 -73 -13 -92 -43c-27 -42 -28 -93 -28 -143v-726h-53v726c0 63 3 129 40 180c30 40 82 54 133 54h7c51 0 103 -14 133 -54c37 -51 39 -117 39 -180c0 -69 -2 -156 -47 -200
c27 -10 51 -26 68 -50c45 -61 47 -140 47 -216c0 -74 0 -151 -37 -215c-24 -43 -72 -65 -122 -65h-10c-53 0 -105 21 -132 65c-19 32 -29 66 -34 102l53 7c4 -26 10 -50 22 -73c17 -34 53 -53 91 -53h10c102 0 106 136 106 232c0 62 -1 128 -35 180c-25 38 -71 53 -117 53
h-51v48h51z" />
    <glyph glyph-name="a" unicode="a" horiz-adv-x="512" 
d="M447 0h-53v146c0 -46 -3 -94 -33 -128c-27 -31 -70 -38 -111 -38h-9c-54 0 -111 3 -152 38c-36 30 -45 80 -45 128s9 98 45 128c41 35 98 38 152 38h9c41 0 84 -7 111 -38c30 -34 33 -82 33 -128v166c0 46 -3 94 -33 129c-27 31 -70 39 -111 39h-9c-41 0 -84 -8 -111 -39
c-15 -17 -23 -38 -28 -60l-53 9c6 33 18 63 40 88c38 41 96 50 152 50h9c56 0 114 -9 152 -50c40 -44 45 -106 45 -166v-312zM250 264h-9c-39 0 -80 -2 -111 -27c-26 -21 -34 -57 -34 -91s8 -70 34 -91c31 -25 72 -27 111 -27h9c39 0 80 2 111 27c26 21 33 57 33 91
s-7 70 -33 91c-31 25 -72 27 -111 27z" />
    <glyph glyph-name="scedilla" unicode="&#x15f;" horiz-adv-x="436" 
d="M35 99l52 7c3 -21 12 -41 28 -54c27 -22 64 -24 99 -24h8c36 0 73 0 101 23c24 19 27 51 27 82c0 42 -26 80 -66 90l-123 16c-65 16 -111 74 -111 140c0 43 3 88 35 117c34 31 84 32 130 32h6c46 0 94 -5 128 -35c23 -20 32 -49 36 -79l-53 -6c-3 19 -10 35 -24 48
c-23 21 -56 24 -87 24h-6c-31 0 -66 -1 -89 -22c-21 -19 -24 -50 -24 -79c0 -43 29 -82 71 -92l123 -16c63 -16 107 -73 107 -138c0 -44 -5 -92 -39 -120c-37 -31 -86 -33 -134 -33l-7 -36c35 0 71 -2 98 -24c23 -19 30 -50 30 -80s-7 -61 -30 -80c-28 -22 -64 -24 -100 -24
h-6c-36 0 -72 2 -100 24c-22 17 -29 44 -30 72l42 2c1 -17 6 -35 20 -45c19 -14 44 -15 68 -15h6c24 0 49 1 68 15c15 11 20 32 20 51s-5 40 -20 51c-19 14 -44 15 -68 15h-45l15 74c-42 1 -85 8 -117 35c-25 21 -35 52 -39 84z" />
    <glyph glyph-name="ugrave" unicode="&#xf9;" 
d="M452 508v-508h-52v172c0 -52 -2 -106 -32 -148c-24 -33 -67 -44 -108 -44h-8c-54 0 -110 6 -148 44s-44 94 -44 148v336h53v-336c0 -40 4 -82 32 -111c27 -28 68 -33 107 -33h8c39 0 81 5 108 33c28 29 32 71 32 111v336h52zM136 774h61l98 -188h-45z" />
    <glyph glyph-name="uacute" unicode="&#xfa;" 
d="M452 508v-508h-52v172c0 -52 -2 -106 -32 -148c-24 -33 -67 -44 -108 -44h-8c-54 0 -110 6 -148 44s-44 94 -44 148v336h53v-336c0 -40 4 -82 32 -111c27 -28 68 -33 107 -33h8c39 0 81 5 108 33c28 29 32 71 32 111v336h52zM316 774h60l-114 -188h-45z" />
    <glyph glyph-name="Ncaron" unicode="&#x147;" horiz-adv-x="681" 
d="M76 0v940h57l419 -835v835h53v-940h-57l-419 835v-835h-53zM433 1198h46l-107 -188h-62l-108 188h46l93 -140z" />
    <glyph glyph-name="one" unicode="1" horiz-adv-x="371" 
d="M186 0v875l-142 -145v69l138 141h57v-940h-53z" />
    <glyph glyph-name="f" unicode="f" horiz-adv-x="322" 
d="M229 922c-45 0 -47 -62 -47 -104v-310h99v-48h-99v-460h-53v460h-99v48h99v310c0 41 1 83 23 117c16 25 47 35 77 35h3c28 0 56 -8 73 -30l-42 -34c-7 10 -19 16 -31 16h-3z" />
    <glyph glyph-name="Ugrave" unicode="&#xd9;" horiz-adv-x="647" 
d="M574 940v-666c0 -80 -5 -164 -56 -226c-45 -54 -118 -68 -188 -68h-12c-70 0 -144 14 -189 68c-51 62 -56 146 -56 226v666h53v-666c0 -67 3 -136 44 -189c34 -44 92 -57 148 -57h12c56 0 113 13 147 57c41 53 45 122 45 189v666h52zM203 1198h61l99 -188h-45z" />
    <glyph glyph-name="macron" unicode="&#xaf;" horiz-adv-x="229" 
d="M-25 801v43h279v-43h-279z" />
    <glyph glyph-name="dash" horiz-adv-x="343" 
d="M44 230v48h256v-48h-256z" />
    <glyph glyph-name="thorn" unicode="&#xfe;" horiz-adv-x="556" 
d="M65 -250v1190h53v-686c0 73 0 149 38 211c26 43 77 63 128 63h10c63 0 129 -14 168 -63c46 -58 50 -136 50 -211s-4 -153 -50 -211c-39 -49 -105 -63 -168 -63h-10c-51 0 -102 20 -128 63c-38 62 -38 138 -38 211v-504h-53zM294 480h-10c-49 0 -99 -13 -128 -52
c-36 -49 -38 -113 -38 -174s2 -125 38 -174c29 -39 79 -52 128 -52h10c49 0 98 13 127 52c36 49 39 113 39 174s-3 125 -39 174c-29 39 -78 52 -127 52z" />
    <glyph glyph-name="space" unicode=" " horiz-adv-x="326" 
 />
    </font>
</defs>
</svg>
